<mxfile host="Electron" agent="Mozilla/5.0 (Windows NT 10.0; Win64; x64) AppleWebKit/537.36 (KHTML, like Gecko) draw.io/26.0.4 Chrome/128.0.6613.186 Electron/32.2.5 Safari/537.36" version="26.0.4" pages="10">
  <diagram id="k85AWazVlHcR_uI0yOIe" name="Use-Case">
    <mxGraphModel dx="1418" dy="820" grid="1" gridSize="10" guides="1" tooltips="1" connect="1" arrows="1" fold="1" page="1" pageScale="1" pageWidth="850" pageHeight="1100" math="0" shadow="0">
      <root>
        <mxCell id="0" />
        <mxCell id="1" parent="0" />
        <mxCell id="2" value="" style="rounded=0;whiteSpace=wrap;html=1;fillColor=none;" parent="1" vertex="1">
          <mxGeometry x="280" y="190" width="320" height="690" as="geometry" />
        </mxCell>
        <mxCell id="3" value="Add &lt;br&gt;Employee" style="ellipse;whiteSpace=wrap;html=1;fillColor=none;fontSize=10;" parent="1" vertex="1">
          <mxGeometry x="345" y="340" width="80" height="40" as="geometry" />
        </mxCell>
        <mxCell id="4" value="&lt;font style=&quot;font-size: 10px;&quot;&gt;Permite&amp;nbsp;&lt;/font&gt;&lt;div&gt;&lt;font style=&quot;font-size: 10px;&quot;&gt;Leaves&lt;/font&gt;&lt;/div&gt;" style="ellipse;whiteSpace=wrap;html=1;fillColor=none;" parent="1" vertex="1">
          <mxGeometry x="450" y="280" width="80" height="40" as="geometry" />
        </mxCell>
        <mxCell id="5" value="Grant &lt;br&gt;Previlage" style="ellipse;whiteSpace=wrap;html=1;fillColor=none;fontSize=10;" parent="1" vertex="1">
          <mxGeometry x="345" y="400" width="80" height="40" as="geometry" />
        </mxCell>
        <mxCell id="6" value="Revock &lt;br&gt;Previlage" style="ellipse;whiteSpace=wrap;html=1;fillColor=none;fontSize=10;" parent="1" vertex="1">
          <mxGeometry x="345" y="460" width="80" height="40" as="geometry" />
        </mxCell>
        <mxCell id="7" value="Edit &lt;br style=&quot;font-size: 10px;&quot;&gt;Detail" style="ellipse;whiteSpace=wrap;html=1;fillColor=none;fontSize=10;" parent="1" vertex="1">
          <mxGeometry x="345" y="520" width="80" height="40" as="geometry" />
        </mxCell>
        <mxCell id="8" value="Assign&lt;br style=&quot;font-size: 10px;&quot;&gt;Manager" style="ellipse;whiteSpace=wrap;html=1;fillColor=none;fontSize=10;" parent="1" vertex="1">
          <mxGeometry x="345" y="640" width="80" height="40" as="geometry" />
        </mxCell>
        <mxCell id="10" value="&lt;font style=&quot;font-size: 10px;&quot;&gt;Assign &lt;br&gt;roles&lt;/font&gt;" style="ellipse;whiteSpace=wrap;html=1;fillColor=none;" parent="1" vertex="1">
          <mxGeometry x="450" y="340" width="80" height="40" as="geometry" />
        </mxCell>
        <mxCell id="11" value="&lt;font style=&quot;font-size: 10px;&quot;&gt;Assign &lt;br&gt;Task&lt;/font&gt;" style="ellipse;whiteSpace=wrap;html=1;fillColor=none;" parent="1" vertex="1">
          <mxGeometry x="450" y="400" width="80" height="40" as="geometry" />
        </mxCell>
        <mxCell id="12" value="&lt;font style=&quot;font-size: 10px;&quot;&gt;Update&lt;br&gt;Department&lt;/font&gt;" style="ellipse;whiteSpace=wrap;html=1;fillColor=none;" parent="1" vertex="1">
          <mxGeometry x="450" y="460" width="80" height="40" as="geometry" />
        </mxCell>
        <mxCell id="13" value="&lt;font style=&quot;font-size: 10px;&quot;&gt;View Permited leaves&lt;/font&gt;" style="ellipse;whiteSpace=wrap;html=1;fillColor=none;" parent="1" vertex="1">
          <mxGeometry x="450" y="520" width="80" height="40" as="geometry" />
        </mxCell>
        <mxCell id="15" value="&lt;font style=&quot;font-size: 10px;&quot;&gt;Check New &lt;br&gt;Task&lt;/font&gt;" style="ellipse;whiteSpace=wrap;html=1;fillColor=none;" parent="1" vertex="1">
          <mxGeometry x="450" y="580" width="80" height="40" as="geometry" />
        </mxCell>
        <mxCell id="16" value="&lt;font style=&quot;font-size: 10px;&quot;&gt;Update Status &lt;br&gt;of Task&lt;/font&gt;" style="ellipse;whiteSpace=wrap;html=1;fillColor=none;" parent="1" vertex="1">
          <mxGeometry x="450" y="640" width="80" height="40" as="geometry" />
        </mxCell>
        <mxCell id="17" value="&lt;font style=&quot;font-size: 10px;&quot;&gt;Check Salary&lt;/font&gt;" style="ellipse;whiteSpace=wrap;html=1;fillColor=none;" parent="1" vertex="1">
          <mxGeometry x="450" y="700" width="80" height="40" as="geometry" />
        </mxCell>
        <mxCell id="18" value="&lt;font style=&quot;font-size: 10px;&quot;&gt;Apply for &lt;br&gt;leaves&lt;/font&gt;" style="ellipse;whiteSpace=wrap;html=1;fillColor=none;" parent="1" vertex="1">
          <mxGeometry x="450" y="760" width="80" height="40" as="geometry" />
        </mxCell>
        <mxCell id="19" value="&lt;font style=&quot;font-size: 10px;&quot;&gt;Log in&lt;/font&gt;" style="ellipse;whiteSpace=wrap;html=1;fillColor=none;" parent="1" vertex="1">
          <mxGeometry x="360" y="220" width="160" height="40" as="geometry" />
        </mxCell>
        <mxCell id="37" style="edgeStyle=none;html=1;exitX=1;exitY=0.3333333333333333;exitDx=0;exitDy=0;exitPerimeter=0;entryX=0;entryY=0.5;entryDx=0;entryDy=0;fontSize=10;endArrow=none;endFill=0;" parent="1" source="20" target="22" edge="1">
          <mxGeometry relative="1" as="geometry" />
        </mxCell>
        <mxCell id="38" style="edgeStyle=none;html=1;exitX=1;exitY=0.3333333333333333;exitDx=0;exitDy=0;exitPerimeter=0;entryX=0;entryY=0.5;entryDx=0;entryDy=0;fontSize=10;endArrow=none;endFill=0;" parent="1" source="20" target="3" edge="1">
          <mxGeometry relative="1" as="geometry" />
        </mxCell>
        <mxCell id="39" style="edgeStyle=none;html=1;exitX=1;exitY=0.3333333333333333;exitDx=0;exitDy=0;exitPerimeter=0;entryX=0;entryY=0.5;entryDx=0;entryDy=0;fontSize=10;endArrow=none;endFill=0;" parent="1" source="20" target="5" edge="1">
          <mxGeometry relative="1" as="geometry" />
        </mxCell>
        <mxCell id="40" style="edgeStyle=none;html=1;exitX=1;exitY=0.3333333333333333;exitDx=0;exitDy=0;exitPerimeter=0;entryX=0;entryY=0.5;entryDx=0;entryDy=0;fontSize=10;endArrow=none;endFill=0;" parent="1" source="20" target="6" edge="1">
          <mxGeometry relative="1" as="geometry" />
        </mxCell>
        <mxCell id="41" style="edgeStyle=none;html=1;exitX=1;exitY=0.3333333333333333;exitDx=0;exitDy=0;exitPerimeter=0;entryX=0;entryY=0.5;entryDx=0;entryDy=0;fontSize=10;endArrow=none;endFill=0;" parent="1" source="20" target="7" edge="1">
          <mxGeometry relative="1" as="geometry" />
        </mxCell>
        <mxCell id="42" style="edgeStyle=none;html=1;exitX=1;exitY=0.3333333333333333;exitDx=0;exitDy=0;exitPerimeter=0;entryX=0;entryY=0.5;entryDx=0;entryDy=0;fontSize=10;endArrow=none;endFill=0;" parent="1" source="20" target="8" edge="1">
          <mxGeometry relative="1" as="geometry" />
        </mxCell>
        <mxCell id="43" style="edgeStyle=none;html=1;exitX=1;exitY=0.3333333333333333;exitDx=0;exitDy=0;exitPerimeter=0;entryX=0;entryY=0.5;entryDx=0;entryDy=0;fontSize=10;endArrow=none;endFill=0;" parent="1" source="20" target="21" edge="1">
          <mxGeometry relative="1" as="geometry" />
        </mxCell>
        <mxCell id="44" style="edgeStyle=none;html=1;exitX=1;exitY=0.3333333333333333;exitDx=0;exitDy=0;exitPerimeter=0;entryX=0;entryY=0.5;entryDx=0;entryDy=0;fontSize=10;endArrow=none;endFill=0;" parent="1" source="20" target="19" edge="1">
          <mxGeometry relative="1" as="geometry" />
        </mxCell>
        <mxCell id="20" value="Admin" style="shape=umlActor;verticalLabelPosition=bottom;verticalAlign=top;html=1;outlineConnect=0;fillColor=none;" parent="1" vertex="1">
          <mxGeometry x="160" y="500" width="40" height="80" as="geometry" />
        </mxCell>
        <mxCell id="21" value="Dealocate Manager" style="ellipse;whiteSpace=wrap;html=1;fillColor=none;fontSize=10;" parent="1" vertex="1">
          <mxGeometry x="345" y="700" width="80" height="40" as="geometry" />
        </mxCell>
        <mxCell id="22" value="Log out" style="ellipse;whiteSpace=wrap;html=1;fillColor=none;fontSize=10;" parent="1" vertex="1">
          <mxGeometry x="360" y="810" width="160" height="40" as="geometry" />
        </mxCell>
        <mxCell id="25" style="edgeStyle=none;html=1;exitX=0;exitY=0.3333333333333333;exitDx=0;exitDy=0;exitPerimeter=0;entryX=1;entryY=0.5;entryDx=0;entryDy=0;fontSize=10;endArrow=none;endFill=0;" parent="1" source="23" target="19" edge="1">
          <mxGeometry relative="1" as="geometry" />
        </mxCell>
        <mxCell id="26" style="edgeStyle=none;html=1;exitX=0;exitY=0.3333333333333333;exitDx=0;exitDy=0;exitPerimeter=0;entryX=1;entryY=0.5;entryDx=0;entryDy=0;fontSize=10;endArrow=none;endFill=0;" parent="1" source="23" target="4" edge="1">
          <mxGeometry relative="1" as="geometry" />
        </mxCell>
        <mxCell id="27" style="edgeStyle=none;html=1;exitX=0;exitY=0.3333333333333333;exitDx=0;exitDy=0;exitPerimeter=0;entryX=1;entryY=0.5;entryDx=0;entryDy=0;fontSize=10;endArrow=none;endFill=0;" parent="1" source="23" target="10" edge="1">
          <mxGeometry relative="1" as="geometry" />
        </mxCell>
        <mxCell id="28" style="edgeStyle=none;html=1;exitX=0;exitY=0.3333333333333333;exitDx=0;exitDy=0;exitPerimeter=0;entryX=1;entryY=0.5;entryDx=0;entryDy=0;fontSize=10;endArrow=none;endFill=0;" parent="1" source="23" target="11" edge="1">
          <mxGeometry relative="1" as="geometry" />
        </mxCell>
        <mxCell id="29" style="edgeStyle=none;html=1;exitX=0;exitY=0.3333333333333333;exitDx=0;exitDy=0;exitPerimeter=0;entryX=1;entryY=0.5;entryDx=0;entryDy=0;fontSize=10;endArrow=none;endFill=0;" parent="1" source="23" target="12" edge="1">
          <mxGeometry relative="1" as="geometry" />
        </mxCell>
        <mxCell id="30" style="edgeStyle=none;html=1;exitX=0;exitY=0.3333333333333333;exitDx=0;exitDy=0;exitPerimeter=0;entryX=1;entryY=0.5;entryDx=0;entryDy=0;fontSize=10;endArrow=none;endFill=0;" parent="1" source="23" target="13" edge="1">
          <mxGeometry relative="1" as="geometry" />
        </mxCell>
        <mxCell id="34" style="edgeStyle=none;html=1;exitX=0;exitY=0.3333333333333333;exitDx=0;exitDy=0;exitPerimeter=0;entryX=1;entryY=0.5;entryDx=0;entryDy=0;fontSize=10;endArrow=none;endFill=0;" parent="1" source="23" target="22" edge="1">
          <mxGeometry relative="1" as="geometry" />
        </mxCell>
        <mxCell id="23" value="Manager" style="shape=umlActor;verticalLabelPosition=bottom;verticalAlign=top;html=1;outlineConnect=0;fillColor=none;" parent="1" vertex="1">
          <mxGeometry x="680" y="390" width="40" height="80" as="geometry" />
        </mxCell>
        <mxCell id="31" style="edgeStyle=none;html=1;exitX=0;exitY=0.3333333333333333;exitDx=0;exitDy=0;exitPerimeter=0;entryX=1;entryY=0.5;entryDx=0;entryDy=0;fontSize=10;endArrow=none;endFill=0;" parent="1" source="24" target="15" edge="1">
          <mxGeometry relative="1" as="geometry" />
        </mxCell>
        <mxCell id="32" style="edgeStyle=none;html=1;exitX=0;exitY=0.3333333333333333;exitDx=0;exitDy=0;exitPerimeter=0;entryX=1;entryY=0.5;entryDx=0;entryDy=0;fontSize=10;endArrow=none;endFill=0;" parent="1" source="24" target="16" edge="1">
          <mxGeometry relative="1" as="geometry" />
        </mxCell>
        <mxCell id="33" style="edgeStyle=none;html=1;exitX=0;exitY=0.3333333333333333;exitDx=0;exitDy=0;exitPerimeter=0;entryX=1;entryY=0.5;entryDx=0;entryDy=0;fontSize=10;endArrow=none;endFill=0;" parent="1" source="24" target="17" edge="1">
          <mxGeometry relative="1" as="geometry" />
        </mxCell>
        <mxCell id="35" style="edgeStyle=none;html=1;exitX=0;exitY=0.3333333333333333;exitDx=0;exitDy=0;exitPerimeter=0;entryX=1;entryY=0.5;entryDx=0;entryDy=0;fontSize=10;endArrow=none;endFill=0;" parent="1" source="24" target="18" edge="1">
          <mxGeometry relative="1" as="geometry" />
        </mxCell>
        <mxCell id="36" style="edgeStyle=none;html=1;exitX=0;exitY=0.3333333333333333;exitDx=0;exitDy=0;exitPerimeter=0;entryX=1;entryY=0.5;entryDx=0;entryDy=0;fontSize=10;endArrow=none;endFill=0;" parent="1" source="24" target="19" edge="1">
          <mxGeometry relative="1" as="geometry" />
        </mxCell>
        <mxCell id="45" style="edgeStyle=none;html=1;exitX=0;exitY=0.3333333333333333;exitDx=0;exitDy=0;exitPerimeter=0;entryX=1;entryY=0.5;entryDx=0;entryDy=0;fontSize=10;endArrow=none;endFill=0;" parent="1" source="24" target="13" edge="1">
          <mxGeometry relative="1" as="geometry" />
        </mxCell>
        <mxCell id="50" style="edgeStyle=none;html=1;exitX=0;exitY=0.3333333333333333;exitDx=0;exitDy=0;exitPerimeter=0;entryX=1;entryY=0.5;entryDx=0;entryDy=0;fontSize=8;startArrow=none;startFill=0;endArrow=none;endFill=0;endSize=2;" parent="1" source="24" target="22" edge="1">
          <mxGeometry relative="1" as="geometry" />
        </mxCell>
        <mxCell id="24" value="Employee" style="shape=umlActor;verticalLabelPosition=bottom;verticalAlign=top;html=1;outlineConnect=0;fillColor=none;" parent="1" vertex="1">
          <mxGeometry x="680" y="630" width="40" height="80" as="geometry" />
        </mxCell>
        <mxCell id="46" value="Employee Management System" style="text;html=1;strokeColor=none;fillColor=none;align=center;verticalAlign=middle;whiteSpace=wrap;rounded=0;fontSize=10;" parent="1" vertex="1">
          <mxGeometry x="365" y="190" width="150" height="30" as="geometry" />
        </mxCell>
        <mxCell id="48" style="edgeStyle=none;html=1;exitX=0.5;exitY=0;exitDx=0;exitDy=0;entryX=0.5;entryY=1;entryDx=0;entryDy=0;fontSize=10;endArrow=classicThin;endFill=1;dashed=1;startArrow=none;startFill=0;endSize=2;" parent="1" source="47" target="7" edge="1">
          <mxGeometry relative="1" as="geometry" />
        </mxCell>
        <mxCell id="47" value="Update Employee &lt;br&gt;Salary" style="ellipse;whiteSpace=wrap;html=1;fillColor=none;fontSize=10;" parent="1" vertex="1">
          <mxGeometry x="345" y="580" width="80" height="40" as="geometry" />
        </mxCell>
        <mxCell id="49" value="&lt;font style=&quot;font-size: 8px;&quot;&gt;includes&lt;/font&gt;" style="text;html=1;strokeColor=none;fillColor=none;align=center;verticalAlign=middle;whiteSpace=wrap;rounded=0;fontSize=10;" parent="1" vertex="1">
          <mxGeometry x="380" y="570" width="40" height="10" as="geometry" />
        </mxCell>
      </root>
    </mxGraphModel>
  </diagram>
  <diagram id="mSqzBUu4SQ6lywPuEru3" name="Acticity-Admin:Assign_Manager">
    <mxGraphModel dx="523" dy="413" grid="1" gridSize="10" guides="1" tooltips="1" connect="1" arrows="1" fold="1" page="1" pageScale="1" pageWidth="850" pageHeight="1100" math="0" shadow="0">
      <root>
        <mxCell id="0" />
        <mxCell id="1" parent="0" />
        <mxCell id="tOO0HVrUKqMApNIs4pgN-1" style="edgeStyle=none;html=1;exitX=0.5;exitY=1;exitDx=0;exitDy=0;entryX=0.5;entryY=0;entryDx=0;entryDy=0;fontSize=10;verticalAlign=middle;fontStyle=0;spacing=2;" parent="1" source="gY4hdDHVigS7EiH8gVHt-2" target="gY4hdDHVigS7EiH8gVHt-4" edge="1">
          <mxGeometry relative="1" as="geometry" />
        </mxCell>
        <mxCell id="gY4hdDHVigS7EiH8gVHt-2" value="" style="ellipse;whiteSpace=wrap;html=1;aspect=fixed;fontSize=10;verticalAlign=middle;fontStyle=0;spacing=2;fillStyle=auto;fillColor=#000000;" parent="1" vertex="1">
          <mxGeometry x="400" y="80" width="40" height="40" as="geometry" />
        </mxCell>
        <mxCell id="tOO0HVrUKqMApNIs4pgN-9" style="edgeStyle=none;rounded=0;html=1;exitX=0.5;exitY=1;exitDx=0;exitDy=0;entryX=0.5;entryY=0;entryDx=0;entryDy=0;fontSize=10;endArrow=classic;endFill=1;verticalAlign=middle;fontStyle=0;spacing=2;" parent="1" source="gY4hdDHVigS7EiH8gVHt-4" target="tOO0HVrUKqMApNIs4pgN-2" edge="1">
          <mxGeometry relative="1" as="geometry" />
        </mxCell>
        <mxCell id="gY4hdDHVigS7EiH8gVHt-4" value="&lt;font style=&quot;font-size: 10px;&quot;&gt;Enter Email&amp;nbsp;&lt;br style=&quot;font-size: 10px;&quot;&gt;&amp;amp; Password&lt;/font&gt;" style="rounded=1;whiteSpace=wrap;html=1;arcSize=50;fontSize=10;verticalAlign=middle;fontStyle=0;spacing=2;" parent="1" vertex="1">
          <mxGeometry x="380" y="160" width="80" height="40" as="geometry" />
        </mxCell>
        <mxCell id="tOO0HVrUKqMApNIs4pgN-3" style="edgeStyle=none;html=1;exitX=0;exitY=0.5;exitDx=0;exitDy=0;entryX=0;entryY=0.5;entryDx=0;entryDy=0;fontSize=10;rounded=0;verticalAlign=middle;fontStyle=0;spacing=2;" parent="1" source="tOO0HVrUKqMApNIs4pgN-2" target="gY4hdDHVigS7EiH8gVHt-4" edge="1">
          <mxGeometry relative="1" as="geometry">
            <Array as="points">
              <mxPoint x="320" y="280" />
              <mxPoint x="320" y="180" />
            </Array>
          </mxGeometry>
        </mxCell>
        <mxCell id="tOO0HVrUKqMApNIs4pgN-2" value="" style="rhombus;whiteSpace=wrap;html=1;rounded=1;fontSize=10;arcSize=0;verticalAlign=middle;fontStyle=0;spacing=2;" parent="1" vertex="1">
          <mxGeometry x="380" y="240" width="80" height="80" as="geometry" />
        </mxCell>
        <mxCell id="tOO0HVrUKqMApNIs4pgN-6" value="" style="edgeStyle=none;rounded=0;html=1;fontSize=10;endArrow=classic;endFill=1;entryX=0.5;entryY=0;entryDx=0;entryDy=0;exitX=1;exitY=0.5;exitDx=0;exitDy=0;verticalAlign=middle;fontStyle=0;spacing=2;" parent="1" source="tOO0HVrUKqMApNIs4pgN-2" target="tOO0HVrUKqMApNIs4pgN-5" edge="1">
          <mxGeometry relative="1" as="geometry">
            <mxPoint x="480" y="260" as="targetPoint" />
            <mxPoint x="440" y="260" as="sourcePoint" />
            <Array as="points">
              <mxPoint x="520" y="280" />
            </Array>
          </mxGeometry>
        </mxCell>
        <mxCell id="Yc4yeRbGexyfVnNYTQ61-3" style="edgeStyle=none;rounded=0;html=1;exitX=0.5;exitY=1;exitDx=0;exitDy=0;entryX=0.5;entryY=0;entryDx=0;entryDy=0;fontSize=10;endArrow=classic;endFill=1;verticalAlign=middle;fontStyle=0;spacing=2;" parent="1" source="tOO0HVrUKqMApNIs4pgN-5" target="Yc4yeRbGexyfVnNYTQ61-2" edge="1">
          <mxGeometry relative="1" as="geometry" />
        </mxCell>
        <mxCell id="tOO0HVrUKqMApNIs4pgN-5" value="&lt;span style=&quot;font-size: 10px;&quot;&gt;Check Manager Screen&lt;/span&gt;" style="rounded=1;whiteSpace=wrap;html=1;arcSize=50;fontSize=10;verticalAlign=middle;fontStyle=0;spacing=2;" parent="1" vertex="1">
          <mxGeometry x="480" y="320" width="80" height="40" as="geometry" />
        </mxCell>
        <mxCell id="tOO0HVrUKqMApNIs4pgN-7" value="Valid" style="text;html=1;strokeColor=none;fillColor=none;align=center;verticalAlign=middle;whiteSpace=wrap;rounded=0;fontSize=10;fontStyle=0;spacing=2;" parent="1" vertex="1">
          <mxGeometry x="450" y="250" width="40" height="20" as="geometry" />
        </mxCell>
        <mxCell id="tOO0HVrUKqMApNIs4pgN-8" value="Invalid" style="text;html=1;strokeColor=none;fillColor=none;align=center;verticalAlign=middle;whiteSpace=wrap;rounded=0;fontSize=10;fontStyle=0;spacing=2;" parent="1" vertex="1">
          <mxGeometry x="350" y="250" width="40" height="20" as="geometry" />
        </mxCell>
        <mxCell id="Yc4yeRbGexyfVnNYTQ61-6" style="edgeStyle=none;rounded=0;html=1;exitX=0;exitY=0.5;exitDx=0;exitDy=0;entryX=0.5;entryY=0;entryDx=0;entryDy=0;fontSize=10;endArrow=classic;endFill=1;verticalAlign=middle;fontStyle=0;spacing=2;" parent="1" source="Yc4yeRbGexyfVnNYTQ61-2" target="Yc4yeRbGexyfVnNYTQ61-4" edge="1">
          <mxGeometry relative="1" as="geometry">
            <Array as="points">
              <mxPoint x="440" y="440" />
            </Array>
          </mxGeometry>
        </mxCell>
        <mxCell id="Yc4yeRbGexyfVnNYTQ61-7" style="edgeStyle=none;rounded=0;html=1;exitX=1;exitY=0.5;exitDx=0;exitDy=0;entryX=0.5;entryY=0;entryDx=0;entryDy=0;fontSize=10;endArrow=classic;endFill=1;verticalAlign=middle;fontStyle=0;spacing=2;" parent="1" source="Yc4yeRbGexyfVnNYTQ61-2" target="Yc4yeRbGexyfVnNYTQ61-5" edge="1">
          <mxGeometry relative="1" as="geometry">
            <Array as="points">
              <mxPoint x="600" y="440" />
            </Array>
          </mxGeometry>
        </mxCell>
        <mxCell id="Yc4yeRbGexyfVnNYTQ61-2" value="" style="rhombus;whiteSpace=wrap;html=1;rounded=1;fontSize=10;arcSize=0;verticalAlign=middle;fontStyle=0;spacing=2;" parent="1" vertex="1">
          <mxGeometry x="480" y="400" width="80" height="80" as="geometry" />
        </mxCell>
        <mxCell id="Yc4yeRbGexyfVnNYTQ61-8" style="edgeStyle=none;rounded=0;html=1;exitX=1;exitY=0.5;exitDx=0;exitDy=0;entryX=0;entryY=0.5;entryDx=0;entryDy=0;fontSize=10;endArrow=classic;endFill=1;verticalAlign=middle;fontStyle=0;spacing=2;" parent="1" source="Yc4yeRbGexyfVnNYTQ61-4" target="Yc4yeRbGexyfVnNYTQ61-5" edge="1">
          <mxGeometry relative="1" as="geometry" />
        </mxCell>
        <mxCell id="Yc4yeRbGexyfVnNYTQ61-4" value="&lt;span style=&quot;font-size: 10px;&quot;&gt;Deallocate Existing Manager&lt;/span&gt;" style="rounded=1;whiteSpace=wrap;html=1;arcSize=50;fontSize=10;verticalAlign=middle;fontStyle=0;spacing=2;" parent="1" vertex="1">
          <mxGeometry x="400" y="480" width="80" height="40" as="geometry" />
        </mxCell>
        <mxCell id="Yc4yeRbGexyfVnNYTQ61-13" style="edgeStyle=none;rounded=0;html=1;exitX=0.5;exitY=1;exitDx=0;exitDy=0;entryX=0.5;entryY=0;entryDx=0;entryDy=0;fontSize=10;endArrow=classic;endFill=1;verticalAlign=middle;fontStyle=0;spacing=2;" parent="1" source="Yc4yeRbGexyfVnNYTQ61-5" target="Yc4yeRbGexyfVnNYTQ61-12" edge="1">
          <mxGeometry relative="1" as="geometry" />
        </mxCell>
        <mxCell id="Yc4yeRbGexyfVnNYTQ61-5" value="&lt;p style=&quot;line-height: 100%; font-size: 10px;&quot;&gt;&lt;span style=&quot;font-size: 10px;&quot;&gt;Assign Employee as Manager&lt;/span&gt;&lt;/p&gt;" style="rounded=1;whiteSpace=wrap;html=1;arcSize=50;fontSize=10;verticalAlign=middle;fontStyle=0;spacing=2;" parent="1" vertex="1">
          <mxGeometry x="560" y="480" width="80" height="40" as="geometry" />
        </mxCell>
        <mxCell id="Yc4yeRbGexyfVnNYTQ61-9" value="Exisit" style="text;html=1;strokeColor=none;fillColor=none;align=center;verticalAlign=middle;whiteSpace=wrap;rounded=0;fontSize=10;fontStyle=0;spacing=2;" parent="1" vertex="1">
          <mxGeometry x="550" y="410" width="40" height="20" as="geometry" />
        </mxCell>
        <mxCell id="Yc4yeRbGexyfVnNYTQ61-11" value="Doesn&#39;t Exist" style="text;html=1;strokeColor=none;fillColor=none;align=center;verticalAlign=middle;whiteSpace=wrap;rounded=0;fontSize=10;fontStyle=0;spacing=2;" parent="1" vertex="1">
          <mxGeometry x="425" y="410" width="70" height="20" as="geometry" />
        </mxCell>
        <mxCell id="Yc4yeRbGexyfVnNYTQ61-15" style="edgeStyle=none;rounded=0;html=1;exitX=0.5;exitY=1;exitDx=0;exitDy=0;entryX=0.5;entryY=0;entryDx=0;entryDy=0;fontSize=10;endArrow=classic;endFill=1;verticalAlign=middle;fontStyle=0;spacing=2;" parent="1" source="Yc4yeRbGexyfVnNYTQ61-12" edge="1">
          <mxGeometry relative="1" as="geometry">
            <mxPoint x="600" y="640" as="targetPoint" />
          </mxGeometry>
        </mxCell>
        <mxCell id="Yc4yeRbGexyfVnNYTQ61-12" value="&lt;span style=&quot;font-size: 10px;&quot;&gt;Grant Previlage&lt;/span&gt;" style="rounded=1;whiteSpace=wrap;html=1;arcSize=50;fontSize=10;verticalAlign=middle;fontStyle=0;spacing=2;" parent="1" vertex="1">
          <mxGeometry x="560" y="560" width="80" height="40" as="geometry" />
        </mxCell>
        <mxCell id="2" value="" style="ellipse;html=1;shape=endState;fillColor=#000000;strokeColor=#000000;" parent="1" vertex="1">
          <mxGeometry x="580" y="640" width="40" height="40" as="geometry" />
        </mxCell>
      </root>
    </mxGraphModel>
  </diagram>
  <diagram id="6EzCiVFKLSlA9S5kuAHY" name="Activity-Admin:Add_Employee">
    <mxGraphModel dx="439" dy="347" grid="1" gridSize="10" guides="1" tooltips="1" connect="1" arrows="1" fold="1" page="1" pageScale="1" pageWidth="850" pageHeight="1100" math="0" shadow="0">
      <root>
        <mxCell id="0" />
        <mxCell id="1" parent="0" />
        <mxCell id="bkXo9MZa8a2A9d-mAvCt-1" style="edgeStyle=none;html=1;exitX=0.5;exitY=1;exitDx=0;exitDy=0;entryX=0.5;entryY=0;entryDx=0;entryDy=0;fontSize=10;verticalAlign=middle;fontStyle=0;spacing=2;" parent="1" source="-eh98Xm_Xrv5xcnqpsf5-1" target="bkXo9MZa8a2A9d-mAvCt-4" edge="1">
          <mxGeometry relative="1" as="geometry">
            <mxPoint x="420" y="120" as="sourcePoint" />
          </mxGeometry>
        </mxCell>
        <mxCell id="bkXo9MZa8a2A9d-mAvCt-3" style="edgeStyle=none;rounded=0;html=1;exitX=0.5;exitY=1;exitDx=0;exitDy=0;entryX=0.5;entryY=0;entryDx=0;entryDy=0;fontSize=10;endArrow=classic;endFill=1;verticalAlign=middle;fontStyle=0;spacing=2;" parent="1" source="bkXo9MZa8a2A9d-mAvCt-4" target="bkXo9MZa8a2A9d-mAvCt-6" edge="1">
          <mxGeometry relative="1" as="geometry" />
        </mxCell>
        <mxCell id="bkXo9MZa8a2A9d-mAvCt-4" value="&lt;font style=&quot;font-size: 10px;&quot;&gt;Enter Email&amp;nbsp;&lt;br style=&quot;font-size: 10px;&quot;&gt;&amp;amp; Password&lt;/font&gt;" style="rounded=1;whiteSpace=wrap;html=1;arcSize=50;fontSize=10;verticalAlign=middle;fontStyle=0;spacing=2;" parent="1" vertex="1">
          <mxGeometry x="380" y="160" width="80" height="40" as="geometry" />
        </mxCell>
        <mxCell id="bkXo9MZa8a2A9d-mAvCt-5" style="edgeStyle=none;html=1;exitX=0;exitY=0.5;exitDx=0;exitDy=0;entryX=0;entryY=0.5;entryDx=0;entryDy=0;fontSize=10;rounded=0;verticalAlign=middle;fontStyle=0;spacing=2;" parent="1" source="bkXo9MZa8a2A9d-mAvCt-6" target="bkXo9MZa8a2A9d-mAvCt-4" edge="1">
          <mxGeometry relative="1" as="geometry">
            <Array as="points">
              <mxPoint x="320" y="280" />
              <mxPoint x="320" y="180" />
            </Array>
          </mxGeometry>
        </mxCell>
        <mxCell id="bkXo9MZa8a2A9d-mAvCt-6" value="" style="rhombus;whiteSpace=wrap;html=1;rounded=1;fontSize=10;arcSize=0;verticalAlign=middle;fontStyle=0;spacing=2;" parent="1" vertex="1">
          <mxGeometry x="380" y="240" width="80" height="80" as="geometry" />
        </mxCell>
        <mxCell id="bkXo9MZa8a2A9d-mAvCt-7" value="" style="edgeStyle=none;rounded=0;html=1;fontSize=10;endArrow=classic;endFill=1;entryX=0.5;entryY=0;entryDx=0;entryDy=0;exitX=1;exitY=0.5;exitDx=0;exitDy=0;verticalAlign=middle;fontStyle=0;spacing=2;" parent="1" source="bkXo9MZa8a2A9d-mAvCt-6" target="bkXo9MZa8a2A9d-mAvCt-9" edge="1">
          <mxGeometry relative="1" as="geometry">
            <mxPoint x="480" y="260" as="targetPoint" />
            <mxPoint x="440" y="260" as="sourcePoint" />
            <Array as="points">
              <mxPoint x="520" y="280" />
            </Array>
          </mxGeometry>
        </mxCell>
        <mxCell id="bkXo9MZa8a2A9d-mAvCt-25" style="edgeStyle=none;html=1;exitX=0.5;exitY=1;exitDx=0;exitDy=0;entryX=0.5;entryY=0;entryDx=0;entryDy=0;" parent="1" source="bkXo9MZa8a2A9d-mAvCt-9" target="bkXo9MZa8a2A9d-mAvCt-24" edge="1">
          <mxGeometry relative="1" as="geometry" />
        </mxCell>
        <mxCell id="bkXo9MZa8a2A9d-mAvCt-9" value="Add Employee Screen" style="rounded=1;whiteSpace=wrap;html=1;arcSize=50;fontSize=10;verticalAlign=middle;fontStyle=0;spacing=2;" parent="1" vertex="1">
          <mxGeometry x="480" y="320" width="80" height="40" as="geometry" />
        </mxCell>
        <mxCell id="bkXo9MZa8a2A9d-mAvCt-10" value="Valid" style="text;html=1;strokeColor=none;fillColor=none;align=center;verticalAlign=middle;whiteSpace=wrap;rounded=0;fontSize=10;fontStyle=0;spacing=2;" parent="1" vertex="1">
          <mxGeometry x="440" y="250" width="40" height="20" as="geometry" />
        </mxCell>
        <mxCell id="bkXo9MZa8a2A9d-mAvCt-12" style="edgeStyle=none;rounded=0;html=1;exitX=0;exitY=0.5;exitDx=0;exitDy=0;entryX=0.5;entryY=0;entryDx=0;entryDy=0;fontSize=10;endArrow=classic;endFill=1;verticalAlign=middle;fontStyle=0;spacing=2;" parent="1" source="bkXo9MZa8a2A9d-mAvCt-14" target="bkXo9MZa8a2A9d-mAvCt-16" edge="1">
          <mxGeometry relative="1" as="geometry">
            <Array as="points">
              <mxPoint x="340" y="600" />
            </Array>
          </mxGeometry>
        </mxCell>
        <mxCell id="bkXo9MZa8a2A9d-mAvCt-13" style="edgeStyle=none;rounded=0;html=1;exitX=1;exitY=0.5;exitDx=0;exitDy=0;entryX=0.5;entryY=0;entryDx=0;entryDy=0;fontSize=10;endArrow=classic;endFill=1;verticalAlign=middle;fontStyle=0;spacing=2;" parent="1" source="bkXo9MZa8a2A9d-mAvCt-14" target="bkXo9MZa8a2A9d-mAvCt-18" edge="1">
          <mxGeometry relative="1" as="geometry">
            <Array as="points">
              <mxPoint x="500" y="600" />
            </Array>
          </mxGeometry>
        </mxCell>
        <mxCell id="bkXo9MZa8a2A9d-mAvCt-14" value="" style="rhombus;whiteSpace=wrap;html=1;rounded=1;fontSize=10;arcSize=0;verticalAlign=middle;fontStyle=0;spacing=2;" parent="1" vertex="1">
          <mxGeometry x="380" y="560" width="80" height="80" as="geometry" />
        </mxCell>
        <mxCell id="bkXo9MZa8a2A9d-mAvCt-15" style="edgeStyle=none;rounded=0;html=1;exitX=1;exitY=0.5;exitDx=0;exitDy=0;entryX=0;entryY=0.5;entryDx=0;entryDy=0;fontSize=10;endArrow=classic;endFill=1;verticalAlign=middle;fontStyle=0;spacing=2;" parent="1" source="bkXo9MZa8a2A9d-mAvCt-16" target="bkXo9MZa8a2A9d-mAvCt-18" edge="1">
          <mxGeometry relative="1" as="geometry" />
        </mxCell>
        <mxCell id="bkXo9MZa8a2A9d-mAvCt-16" value="Get valid Detail" style="rounded=1;whiteSpace=wrap;html=1;arcSize=50;fontSize=10;verticalAlign=middle;fontStyle=0;spacing=2;" parent="1" vertex="1">
          <mxGeometry x="300" y="640" width="80" height="40" as="geometry" />
        </mxCell>
        <mxCell id="o9YJYiCmJUhkF753mEg--6" style="edgeStyle=none;rounded=0;html=1;exitX=0.5;exitY=1;exitDx=0;exitDy=0;entryX=0;entryY=0.5;entryDx=0;entryDy=0;" parent="1" source="bkXo9MZa8a2A9d-mAvCt-18" target="o9YJYiCmJUhkF753mEg--4" edge="1">
          <mxGeometry relative="1" as="geometry">
            <Array as="points">
              <mxPoint x="500" y="740" />
            </Array>
          </mxGeometry>
        </mxCell>
        <mxCell id="bkXo9MZa8a2A9d-mAvCt-18" value="&lt;p style=&quot;line-height: 100%; font-size: 10px;&quot;&gt;Enter Employee Detail&lt;/p&gt;" style="rounded=1;whiteSpace=wrap;html=1;arcSize=50;fontSize=10;verticalAlign=middle;fontStyle=0;spacing=2;" parent="1" vertex="1">
          <mxGeometry x="460" y="640" width="80" height="40" as="geometry" />
        </mxCell>
        <mxCell id="bkXo9MZa8a2A9d-mAvCt-27" style="edgeStyle=none;html=1;exitX=0;exitY=0.5;exitDx=0;exitDy=0;entryX=0.5;entryY=0;entryDx=0;entryDy=0;rounded=0;" parent="1" source="bkXo9MZa8a2A9d-mAvCt-24" target="bkXo9MZa8a2A9d-mAvCt-26" edge="1">
          <mxGeometry relative="1" as="geometry">
            <Array as="points">
              <mxPoint x="420" y="440" />
            </Array>
          </mxGeometry>
        </mxCell>
        <mxCell id="o9YJYiCmJUhkF753mEg--3" style="edgeStyle=none;rounded=0;html=1;exitX=1;exitY=0.5;exitDx=0;exitDy=0;entryX=0.5;entryY=0;entryDx=0;entryDy=0;" parent="1" source="bkXo9MZa8a2A9d-mAvCt-24" target="o9YJYiCmJUhkF753mEg--2" edge="1">
          <mxGeometry relative="1" as="geometry">
            <Array as="points">
              <mxPoint x="620" y="440" />
            </Array>
          </mxGeometry>
        </mxCell>
        <mxCell id="bkXo9MZa8a2A9d-mAvCt-24" value="" style="rhombus;whiteSpace=wrap;html=1;rounded=1;fontSize=10;arcSize=0;verticalAlign=middle;fontStyle=0;spacing=2;" parent="1" vertex="1">
          <mxGeometry x="480" y="400" width="80" height="80" as="geometry" />
        </mxCell>
        <mxCell id="o9YJYiCmJUhkF753mEg--1" style="edgeStyle=none;rounded=0;html=1;exitX=0.5;exitY=1;exitDx=0;exitDy=0;entryX=0.5;entryY=0;entryDx=0;entryDy=0;" parent="1" source="bkXo9MZa8a2A9d-mAvCt-26" target="bkXo9MZa8a2A9d-mAvCt-14" edge="1">
          <mxGeometry relative="1" as="geometry" />
        </mxCell>
        <mxCell id="bkXo9MZa8a2A9d-mAvCt-26" value="Add New Employee" style="rounded=1;whiteSpace=wrap;html=1;arcSize=50;fontSize=10;verticalAlign=middle;fontStyle=0;spacing=2;" parent="1" vertex="1">
          <mxGeometry x="380" y="480" width="80" height="40" as="geometry" />
        </mxCell>
        <mxCell id="o9YJYiCmJUhkF753mEg--5" style="edgeStyle=none;rounded=0;html=1;exitX=0.5;exitY=1;exitDx=0;exitDy=0;entryX=1;entryY=0.5;entryDx=0;entryDy=0;" parent="1" source="o9YJYiCmJUhkF753mEg--2" target="o9YJYiCmJUhkF753mEg--4" edge="1">
          <mxGeometry relative="1" as="geometry">
            <Array as="points">
              <mxPoint x="620" y="740" />
            </Array>
          </mxGeometry>
        </mxCell>
        <mxCell id="o9YJYiCmJUhkF753mEg--2" value="Edit Employee Detail" style="rounded=1;whiteSpace=wrap;html=1;arcSize=50;fontSize=10;verticalAlign=middle;fontStyle=0;spacing=2;" parent="1" vertex="1">
          <mxGeometry x="580" y="570" width="80" height="40" as="geometry" />
        </mxCell>
        <mxCell id="oB4_1qeFy_i3Vht64qiH-1" style="edgeStyle=none;rounded=0;html=1;exitX=0.5;exitY=1;exitDx=0;exitDy=0;entryX=0.5;entryY=0;entryDx=0;entryDy=0;" parent="1" source="o9YJYiCmJUhkF753mEg--4" target="-eh98Xm_Xrv5xcnqpsf5-2" edge="1">
          <mxGeometry relative="1" as="geometry">
            <mxPoint x="560" y="799.9999999999999" as="targetPoint" />
          </mxGeometry>
        </mxCell>
        <mxCell id="o9YJYiCmJUhkF753mEg--4" value="&lt;p style=&quot;line-height: 100%; font-size: 10px;&quot;&gt;Save Changes&lt;/p&gt;" style="rounded=1;whiteSpace=wrap;html=1;arcSize=50;fontSize=10;verticalAlign=middle;fontStyle=0;spacing=2;" parent="1" vertex="1">
          <mxGeometry x="520" y="720" width="80" height="40" as="geometry" />
        </mxCell>
        <mxCell id="oB4_1qeFy_i3Vht64qiH-3" value="Exisit" style="text;html=1;strokeColor=none;fillColor=none;align=center;verticalAlign=middle;whiteSpace=wrap;rounded=0;fontSize=10;fontStyle=0;spacing=2;" parent="1" vertex="1">
          <mxGeometry x="540" y="410" width="40" height="20" as="geometry" />
        </mxCell>
        <mxCell id="oB4_1qeFy_i3Vht64qiH-4" value="Valid Detail" style="text;html=1;strokeColor=none;fillColor=none;align=center;verticalAlign=middle;whiteSpace=wrap;rounded=0;fontSize=10;fontStyle=0;spacing=2;" parent="1" vertex="1">
          <mxGeometry x="440" y="570" width="70" height="20" as="geometry" />
        </mxCell>
        <mxCell id="-eh98Xm_Xrv5xcnqpsf5-1" value="" style="ellipse;whiteSpace=wrap;html=1;aspect=fixed;fontSize=10;verticalAlign=middle;fontStyle=0;spacing=2;fillStyle=auto;fillColor=#000000;" vertex="1" parent="1">
          <mxGeometry x="400" y="80" width="40" height="40" as="geometry" />
        </mxCell>
        <mxCell id="-eh98Xm_Xrv5xcnqpsf5-2" value="" style="ellipse;html=1;shape=endState;fillColor=#000000;strokeColor=#000000;" vertex="1" parent="1">
          <mxGeometry x="540" y="800" width="40" height="40" as="geometry" />
        </mxCell>
        <mxCell id="5_unNjjfusL3XDeNrvUM-1" value="Doesn&#39;t Exisit" style="text;html=1;strokeColor=none;fillColor=none;align=center;verticalAlign=middle;whiteSpace=wrap;rounded=0;fontSize=10;fontStyle=0;spacing=2;" vertex="1" parent="1">
          <mxGeometry x="425" y="410" width="70" height="20" as="geometry" />
        </mxCell>
        <mxCell id="5_unNjjfusL3XDeNrvUM-2" value="Invalid" style="text;html=1;strokeColor=none;fillColor=none;align=center;verticalAlign=middle;whiteSpace=wrap;rounded=0;fontSize=10;fontStyle=0;spacing=2;" vertex="1" parent="1">
          <mxGeometry x="350" y="250" width="40" height="20" as="geometry" />
        </mxCell>
        <mxCell id="5_unNjjfusL3XDeNrvUM-3" value="Invalid Detail" style="text;html=1;strokeColor=none;fillColor=none;align=center;verticalAlign=middle;whiteSpace=wrap;rounded=0;fontSize=10;fontStyle=0;spacing=2;" vertex="1" parent="1">
          <mxGeometry x="330" y="570" width="70" height="20" as="geometry" />
        </mxCell>
      </root>
    </mxGraphModel>
  </diagram>
  <diagram id="5YmJ4OJ9bQF8XfdtoYu8" name="swimlane-Admin:Assign_Manager">
    <mxGraphModel dx="1434" dy="836" grid="1" gridSize="10" guides="1" tooltips="1" connect="1" arrows="1" fold="1" page="1" pageScale="1" pageWidth="850" pageHeight="1100" math="0" shadow="0">
      <root>
        <mxCell id="0" />
        <mxCell id="1" parent="0" />
        <mxCell id="b-AghpPyf1AohrY7wIAJ-9" value="" style="rounded=0;whiteSpace=wrap;html=1;fillColor=none;" parent="1" vertex="1">
          <mxGeometry x="160" y="60" width="560" height="500" as="geometry" />
        </mxCell>
        <mxCell id="5WvaobMdoe57vpzXBWH9-1" style="edgeStyle=none;html=1;exitX=1;exitY=0.5;exitDx=0;exitDy=0;entryX=0;entryY=0.5;entryDx=0;entryDy=0;fontSize=10;verticalAlign=middle;fontStyle=0;spacing=2;" parent="1" source="v5X-u3lEXp1n2A1F2oN--1" target="5WvaobMdoe57vpzXBWH9-4" edge="1">
          <mxGeometry relative="1" as="geometry">
            <mxPoint x="240" y="140.00000000000006" as="sourcePoint" />
          </mxGeometry>
        </mxCell>
        <mxCell id="5WvaobMdoe57vpzXBWH9-3" style="edgeStyle=none;rounded=0;html=1;exitX=1;exitY=0.5;exitDx=0;exitDy=0;entryX=0.5;entryY=0;entryDx=0;entryDy=0;fontSize=10;endArrow=classic;endFill=1;verticalAlign=middle;fontStyle=0;spacing=2;" parent="1" source="5WvaobMdoe57vpzXBWH9-4" target="5WvaobMdoe57vpzXBWH9-6" edge="1">
          <mxGeometry relative="1" as="geometry">
            <Array as="points">
              <mxPoint x="580" y="140" />
            </Array>
          </mxGeometry>
        </mxCell>
        <mxCell id="5WvaobMdoe57vpzXBWH9-4" value="&lt;font style=&quot;font-size: 10px;&quot;&gt;Enter Email&amp;nbsp;&lt;br style=&quot;font-size: 10px;&quot;&gt;&amp;amp; Password&lt;/font&gt;" style="rounded=1;whiteSpace=wrap;html=1;arcSize=50;fontSize=10;verticalAlign=middle;fontStyle=0;spacing=2;" parent="1" vertex="1">
          <mxGeometry x="280" y="120" width="80" height="40" as="geometry" />
        </mxCell>
        <mxCell id="b-AghpPyf1AohrY7wIAJ-1" style="edgeStyle=none;html=1;exitX=0;exitY=0.5;exitDx=0;exitDy=0;entryX=0.5;entryY=0;entryDx=0;entryDy=0;rounded=0;" parent="1" source="5WvaobMdoe57vpzXBWH9-6" target="5WvaobMdoe57vpzXBWH9-9" edge="1">
          <mxGeometry relative="1" as="geometry">
            <Array as="points">
              <mxPoint x="320" y="200" />
            </Array>
          </mxGeometry>
        </mxCell>
        <mxCell id="b-AghpPyf1AohrY7wIAJ-3" style="edgeStyle=none;rounded=0;html=1;exitX=1;exitY=0.5;exitDx=0;exitDy=0;entryX=0.5;entryY=0;entryDx=0;entryDy=0;" parent="1" source="5WvaobMdoe57vpzXBWH9-6" target="5WvaobMdoe57vpzXBWH9-4" edge="1">
          <mxGeometry relative="1" as="geometry">
            <Array as="points">
              <mxPoint x="680" y="200" />
              <mxPoint x="680" y="100" />
              <mxPoint x="320" y="100" />
            </Array>
          </mxGeometry>
        </mxCell>
        <mxCell id="5WvaobMdoe57vpzXBWH9-6" value="" style="rhombus;whiteSpace=wrap;html=1;rounded=1;fontSize=10;arcSize=0;verticalAlign=middle;fontStyle=0;spacing=2;" parent="1" vertex="1">
          <mxGeometry x="540" y="160" width="80" height="80" as="geometry" />
        </mxCell>
        <mxCell id="b-AghpPyf1AohrY7wIAJ-2" style="edgeStyle=none;rounded=0;html=1;exitX=0.5;exitY=1;exitDx=0;exitDy=0;entryX=0.5;entryY=0;entryDx=0;entryDy=0;" parent="1" source="5WvaobMdoe57vpzXBWH9-9" target="5WvaobMdoe57vpzXBWH9-14" edge="1">
          <mxGeometry relative="1" as="geometry">
            <Array as="points">
              <mxPoint x="320" y="280" />
              <mxPoint x="580" y="280" />
            </Array>
          </mxGeometry>
        </mxCell>
        <mxCell id="5WvaobMdoe57vpzXBWH9-9" value="&lt;span style=&quot;font-size: 10px;&quot;&gt;Check Manager Screen&lt;/span&gt;" style="rounded=1;whiteSpace=wrap;html=1;arcSize=50;fontSize=10;verticalAlign=middle;fontStyle=0;spacing=2;" parent="1" vertex="1">
          <mxGeometry x="280" y="220" width="80" height="40" as="geometry" />
        </mxCell>
        <mxCell id="b-AghpPyf1AohrY7wIAJ-4" style="edgeStyle=none;rounded=0;html=1;exitX=0;exitY=0.5;exitDx=0;exitDy=0;entryX=1;entryY=0.5;entryDx=0;entryDy=0;" parent="1" source="5WvaobMdoe57vpzXBWH9-14" target="5WvaobMdoe57vpzXBWH9-16" edge="1">
          <mxGeometry relative="1" as="geometry" />
        </mxCell>
        <mxCell id="b-AghpPyf1AohrY7wIAJ-5" style="edgeStyle=none;rounded=0;html=1;exitX=1;exitY=0.5;exitDx=0;exitDy=0;entryX=1;entryY=0.5;entryDx=0;entryDy=0;" parent="1" source="5WvaobMdoe57vpzXBWH9-14" target="5WvaobMdoe57vpzXBWH9-18" edge="1">
          <mxGeometry relative="1" as="geometry">
            <Array as="points">
              <mxPoint x="680" y="340" />
              <mxPoint x="680" y="420" />
            </Array>
          </mxGeometry>
        </mxCell>
        <mxCell id="5WvaobMdoe57vpzXBWH9-14" value="" style="rhombus;whiteSpace=wrap;html=1;rounded=1;fontSize=10;arcSize=0;verticalAlign=middle;fontStyle=0;spacing=2;" parent="1" vertex="1">
          <mxGeometry x="540" y="300" width="80" height="80" as="geometry" />
        </mxCell>
        <mxCell id="b-AghpPyf1AohrY7wIAJ-6" style="edgeStyle=none;rounded=0;html=1;exitX=0.5;exitY=1;exitDx=0;exitDy=0;entryX=0.5;entryY=0;entryDx=0;entryDy=0;" parent="1" source="5WvaobMdoe57vpzXBWH9-16" target="5WvaobMdoe57vpzXBWH9-18" edge="1">
          <mxGeometry relative="1" as="geometry" />
        </mxCell>
        <mxCell id="5WvaobMdoe57vpzXBWH9-16" value="&lt;span style=&quot;font-size: 10px;&quot;&gt;Deallocate Existing Manager&lt;/span&gt;" style="rounded=1;whiteSpace=wrap;html=1;arcSize=50;fontSize=10;verticalAlign=middle;fontStyle=0;spacing=2;" parent="1" vertex="1">
          <mxGeometry x="280" y="320" width="80" height="40" as="geometry" />
        </mxCell>
        <mxCell id="b-AghpPyf1AohrY7wIAJ-7" style="edgeStyle=none;rounded=0;html=1;exitX=0.5;exitY=1;exitDx=0;exitDy=0;entryX=0.5;entryY=0;entryDx=0;entryDy=0;" parent="1" source="5WvaobMdoe57vpzXBWH9-18" target="5WvaobMdoe57vpzXBWH9-22" edge="1">
          <mxGeometry relative="1" as="geometry" />
        </mxCell>
        <mxCell id="5WvaobMdoe57vpzXBWH9-18" value="&lt;p style=&quot;line-height: 100%; font-size: 10px;&quot;&gt;&lt;span style=&quot;font-size: 10px;&quot;&gt;Assign Employee as Manager&lt;/span&gt;&lt;/p&gt;" style="rounded=1;whiteSpace=wrap;html=1;arcSize=50;fontSize=10;verticalAlign=middle;fontStyle=0;spacing=2;" parent="1" vertex="1">
          <mxGeometry x="280" y="400" width="80" height="40" as="geometry" />
        </mxCell>
        <mxCell id="b-AghpPyf1AohrY7wIAJ-8" style="edgeStyle=none;rounded=0;html=1;exitX=1;exitY=0.5;exitDx=0;exitDy=0;entryX=0;entryY=0.5;entryDx=0;entryDy=0;" parent="1" source="5WvaobMdoe57vpzXBWH9-22" target="v5X-u3lEXp1n2A1F2oN--2" edge="1">
          <mxGeometry relative="1" as="geometry">
            <mxPoint x="540" y="500" as="targetPoint" />
          </mxGeometry>
        </mxCell>
        <mxCell id="5WvaobMdoe57vpzXBWH9-22" value="&lt;span style=&quot;font-size: 10px;&quot;&gt;Grant Previlage&lt;/span&gt;" style="rounded=1;whiteSpace=wrap;html=1;arcSize=50;fontSize=10;verticalAlign=middle;fontStyle=0;spacing=2;" parent="1" vertex="1">
          <mxGeometry x="280" y="480" width="80" height="40" as="geometry" />
        </mxCell>
        <mxCell id="b-AghpPyf1AohrY7wIAJ-10" value="" style="endArrow=none;html=1;rounded=0;entryX=0;entryY=1;entryDx=0;entryDy=0;exitX=0.5;exitY=1;exitDx=0;exitDy=0;" parent="1" source="b-AghpPyf1AohrY7wIAJ-9" target="v5X-u3lEXp1n2A1F2oN--4" edge="1">
          <mxGeometry width="50" height="50" relative="1" as="geometry">
            <mxPoint x="550" y="320" as="sourcePoint" />
            <mxPoint x="730" y="240" as="targetPoint" />
          </mxGeometry>
        </mxCell>
        <mxCell id="b-AghpPyf1AohrY7wIAJ-11" value="Allert &quot;Invalid Email or Password&quot;" style="rounded=1;whiteSpace=wrap;html=1;arcSize=50;fontSize=10;verticalAlign=middle;fontStyle=0;spacing=2;" parent="1" vertex="1">
          <mxGeometry x="480" y="80" width="80" height="40" as="geometry" />
        </mxCell>
        <mxCell id="v5X-u3lEXp1n2A1F2oN--1" value="" style="ellipse;whiteSpace=wrap;html=1;aspect=fixed;fontSize=10;verticalAlign=middle;fontStyle=0;spacing=2;fillStyle=auto;fillColor=#000000;" parent="1" vertex="1">
          <mxGeometry x="200" y="120" width="40" height="40" as="geometry" />
        </mxCell>
        <mxCell id="v5X-u3lEXp1n2A1F2oN--2" value="" style="ellipse;html=1;shape=endState;fillColor=#000000;strokeColor=#000000;" parent="1" vertex="1">
          <mxGeometry x="560" y="480" width="40" height="40" as="geometry" />
        </mxCell>
        <mxCell id="v5X-u3lEXp1n2A1F2oN--3" value="Admin" style="rounded=0;whiteSpace=wrap;html=1;fillColor=none;" parent="1" vertex="1">
          <mxGeometry x="160" y="20" width="280" height="40" as="geometry" />
        </mxCell>
        <mxCell id="v5X-u3lEXp1n2A1F2oN--4" value="&lt;span style=&quot;font-size: 11pt; font-family: Calibri, sans-serif;&quot; lang=&quot;EN-US&quot;&gt;Employee Management System&lt;/span&gt;" style="rounded=0;whiteSpace=wrap;html=1;fillColor=none;" parent="1" vertex="1">
          <mxGeometry x="440" y="20" width="280" height="40" as="geometry" />
        </mxCell>
        <mxCell id="v5X-u3lEXp1n2A1F2oN--5" value="&lt;font style=&quot;font-size: 10px;&quot;&gt;[Valid]&lt;/font&gt;" style="text;html=1;align=center;verticalAlign=middle;whiteSpace=wrap;rounded=0;" parent="1" vertex="1">
          <mxGeometry x="490" y="180" width="60" height="20" as="geometry" />
        </mxCell>
        <mxCell id="v5X-u3lEXp1n2A1F2oN--6" value="&lt;font style=&quot;font-size: 10px;&quot;&gt;[Invalid]&lt;/font&gt;" style="text;html=1;align=center;verticalAlign=middle;whiteSpace=wrap;rounded=0;" parent="1" vertex="1">
          <mxGeometry x="620" y="180" width="60" height="20" as="geometry" />
        </mxCell>
        <mxCell id="v5X-u3lEXp1n2A1F2oN--7" value="&lt;font style=&quot;font-size: 10px;&quot;&gt;[Manager Exist]&lt;/font&gt;" style="text;html=1;align=center;verticalAlign=middle;whiteSpace=wrap;rounded=0;" parent="1" vertex="1">
          <mxGeometry x="460" y="320" width="90" height="20" as="geometry" />
        </mxCell>
        <mxCell id="v5X-u3lEXp1n2A1F2oN--8" value="&lt;font style=&quot;font-size: 10px;&quot;&gt;[Manager doesn&#39;t Exist]&lt;/font&gt;" style="text;html=1;align=center;verticalAlign=middle;whiteSpace=wrap;rounded=0;" parent="1" vertex="1">
          <mxGeometry x="610" y="320" width="110" height="20" as="geometry" />
        </mxCell>
      </root>
    </mxGraphModel>
  </diagram>
  <diagram id="vdqMW2EGKHB3mF39gYHQ" name="swimlane-Admin:Add_Employee">
    <mxGraphModel dx="584" dy="884" grid="1" gridSize="10" guides="1" tooltips="1" connect="1" arrows="1" fold="1" page="1" pageScale="1" pageWidth="850" pageHeight="1100" math="0" shadow="0">
      <root>
        <mxCell id="0" />
        <mxCell id="1" parent="0" />
        <mxCell id="0SFozulJ9GsUOCY1oSRf-13" value="" style="rounded=0;whiteSpace=wrap;html=1;fillColor=none;" parent="1" vertex="1">
          <mxGeometry x="1040" y="100" width="560" height="720" as="geometry" />
        </mxCell>
        <mxCell id="0SFozulJ9GsUOCY1oSRf-11" style="edgeStyle=none;rounded=0;html=1;entryX=0;entryY=0.5;entryDx=0;entryDy=0;startArrow=none;exitX=1;exitY=0.5;exitDx=0;exitDy=0;" parent="1" source="Ab_32cYo5fPvLgcXpCjn-1" target="AT14sfKmnzvmW3W3LoaK-4" edge="1">
          <mxGeometry relative="1" as="geometry">
            <mxPoint x="1120" y="219.5" as="sourcePoint" />
          </mxGeometry>
        </mxCell>
        <mxCell id="eTn9bEvN3YfkKOgN4sRL-1" style="edgeStyle=none;rounded=0;html=1;exitX=1;exitY=0.5;exitDx=0;exitDy=0;entryX=0.5;entryY=0;entryDx=0;entryDy=0;" parent="1" source="AT14sfKmnzvmW3W3LoaK-4" target="AT14sfKmnzvmW3W3LoaK-6" edge="1">
          <mxGeometry relative="1" as="geometry">
            <Array as="points">
              <mxPoint x="1460" y="220" />
            </Array>
          </mxGeometry>
        </mxCell>
        <mxCell id="AT14sfKmnzvmW3W3LoaK-4" value="&lt;font style=&quot;font-size: 10px;&quot;&gt;Enter Email&amp;nbsp;&lt;br style=&quot;font-size: 10px;&quot;&gt;&amp;amp; Password&lt;/font&gt;" style="rounded=1;whiteSpace=wrap;html=1;arcSize=50;fontSize=10;verticalAlign=middle;fontStyle=0;spacing=2;" parent="1" vertex="1">
          <mxGeometry x="1160" y="199.5" width="80" height="40" as="geometry" />
        </mxCell>
        <mxCell id="eEf-J3PE5VGNvoV5R_3B-1" style="edgeStyle=none;rounded=0;html=1;exitX=1;exitY=0.5;exitDx=0;exitDy=0;entryX=0.5;entryY=0;entryDx=0;entryDy=0;startArrow=none;" parent="1" source="-Oo9jaJtH-6lUm0N0lpN-1" target="AT14sfKmnzvmW3W3LoaK-4" edge="1">
          <mxGeometry relative="1" as="geometry">
            <Array as="points">
              <mxPoint x="1200" y="160" />
            </Array>
          </mxGeometry>
        </mxCell>
        <mxCell id="-Oo9jaJtH-6lUm0N0lpN-3" style="edgeStyle=none;rounded=0;html=1;exitX=0;exitY=0.5;exitDx=0;exitDy=0;entryX=0.5;entryY=0;entryDx=0;entryDy=0;" parent="1" source="AT14sfKmnzvmW3W3LoaK-6" target="AT14sfKmnzvmW3W3LoaK-9" edge="1">
          <mxGeometry relative="1" as="geometry">
            <Array as="points">
              <mxPoint x="1200" y="280" />
            </Array>
          </mxGeometry>
        </mxCell>
        <mxCell id="AT14sfKmnzvmW3W3LoaK-6" value="" style="rhombus;whiteSpace=wrap;html=1;rounded=1;fontSize=10;arcSize=0;verticalAlign=middle;fontStyle=0;spacing=2;" parent="1" vertex="1">
          <mxGeometry x="1420" y="240" width="80" height="80" as="geometry" />
        </mxCell>
        <mxCell id="-Oo9jaJtH-6lUm0N0lpN-4" style="edgeStyle=none;rounded=0;html=1;exitX=1;exitY=0.5;exitDx=0;exitDy=0;entryX=0.5;entryY=0;entryDx=0;entryDy=0;" parent="1" source="AT14sfKmnzvmW3W3LoaK-9" target="AT14sfKmnzvmW3W3LoaK-21" edge="1">
          <mxGeometry relative="1" as="geometry">
            <Array as="points">
              <mxPoint x="1460" y="340" />
            </Array>
          </mxGeometry>
        </mxCell>
        <mxCell id="AT14sfKmnzvmW3W3LoaK-9" value="Add Employee Screen" style="rounded=1;whiteSpace=wrap;html=1;arcSize=50;fontSize=10;verticalAlign=middle;fontStyle=0;spacing=2;" parent="1" vertex="1">
          <mxGeometry x="1160" y="320" width="80" height="40" as="geometry" />
        </mxCell>
        <mxCell id="0SFozulJ9GsUOCY1oSRf-4" style="edgeStyle=none;rounded=0;html=1;exitX=0;exitY=0.5;exitDx=0;exitDy=0;entryX=1;entryY=0.5;entryDx=0;entryDy=0;" parent="1" source="AT14sfKmnzvmW3W3LoaK-13" target="AT14sfKmnzvmW3W3LoaK-15" edge="1">
          <mxGeometry relative="1" as="geometry" />
        </mxCell>
        <mxCell id="0SFozulJ9GsUOCY1oSRf-5" style="edgeStyle=none;rounded=0;html=1;exitX=1;exitY=0.5;exitDx=0;exitDy=0;entryX=1;entryY=0.5;entryDx=0;entryDy=0;" parent="1" source="AT14sfKmnzvmW3W3LoaK-13" target="AT14sfKmnzvmW3W3LoaK-17" edge="1">
          <mxGeometry relative="1" as="geometry">
            <Array as="points">
              <mxPoint x="1520" y="520" />
              <mxPoint x="1520" y="600" />
            </Array>
          </mxGeometry>
        </mxCell>
        <mxCell id="AT14sfKmnzvmW3W3LoaK-13" value="" style="rhombus;whiteSpace=wrap;html=1;rounded=1;fontSize=10;arcSize=0;verticalAlign=middle;fontStyle=0;spacing=2;" parent="1" vertex="1">
          <mxGeometry x="1420" y="480" width="80" height="80" as="geometry" />
        </mxCell>
        <mxCell id="0SFozulJ9GsUOCY1oSRf-6" style="edgeStyle=none;rounded=0;html=1;exitX=0.5;exitY=1;exitDx=0;exitDy=0;entryX=0.5;entryY=0;entryDx=0;entryDy=0;" parent="1" source="AT14sfKmnzvmW3W3LoaK-15" target="AT14sfKmnzvmW3W3LoaK-17" edge="1">
          <mxGeometry relative="1" as="geometry" />
        </mxCell>
        <mxCell id="AT14sfKmnzvmW3W3LoaK-15" value="Get valid Detail" style="rounded=1;whiteSpace=wrap;html=1;arcSize=50;fontSize=10;verticalAlign=middle;fontStyle=0;spacing=2;" parent="1" vertex="1">
          <mxGeometry x="1160" y="500" width="80" height="40" as="geometry" />
        </mxCell>
        <mxCell id="PTGL0S4qBwvWDQtRirkx-1" style="edgeStyle=orthogonalEdgeStyle;rounded=0;orthogonalLoop=1;jettySize=auto;html=1;exitX=0;exitY=0.5;exitDx=0;exitDy=0;entryX=0;entryY=0.5;entryDx=0;entryDy=0;" parent="1" source="AT14sfKmnzvmW3W3LoaK-17" target="AT14sfKmnzvmW3W3LoaK-27" edge="1">
          <mxGeometry relative="1" as="geometry">
            <Array as="points">
              <mxPoint x="1120" y="600" />
              <mxPoint x="1120" y="760" />
            </Array>
          </mxGeometry>
        </mxCell>
        <mxCell id="AT14sfKmnzvmW3W3LoaK-17" value="&lt;p style=&quot;line-height: 100%; font-size: 10px;&quot;&gt;Enter Employee Detail&lt;/p&gt;" style="rounded=1;whiteSpace=wrap;html=1;arcSize=50;fontSize=10;verticalAlign=middle;fontStyle=0;spacing=2;" parent="1" vertex="1">
          <mxGeometry x="1160" y="580" width="80" height="40" as="geometry" />
        </mxCell>
        <mxCell id="0SFozulJ9GsUOCY1oSRf-2" style="edgeStyle=none;rounded=0;html=1;exitX=0;exitY=0.5;exitDx=0;exitDy=0;entryX=0.5;entryY=0;entryDx=0;entryDy=0;" parent="1" source="AT14sfKmnzvmW3W3LoaK-21" target="AT14sfKmnzvmW3W3LoaK-23" edge="1">
          <mxGeometry relative="1" as="geometry">
            <Array as="points">
              <mxPoint x="1200" y="400" />
            </Array>
          </mxGeometry>
        </mxCell>
        <mxCell id="0SFozulJ9GsUOCY1oSRf-8" style="edgeStyle=none;rounded=0;html=1;exitX=1;exitY=0.5;exitDx=0;exitDy=0;entryX=1;entryY=0.5;entryDx=0;entryDy=0;" parent="1" source="AT14sfKmnzvmW3W3LoaK-21" target="AT14sfKmnzvmW3W3LoaK-25" edge="1">
          <mxGeometry relative="1" as="geometry">
            <Array as="points">
              <mxPoint x="1560" y="400" />
              <mxPoint x="1560" y="680" />
            </Array>
          </mxGeometry>
        </mxCell>
        <mxCell id="AT14sfKmnzvmW3W3LoaK-21" value="" style="rhombus;whiteSpace=wrap;html=1;rounded=1;fontSize=10;arcSize=0;verticalAlign=middle;fontStyle=0;spacing=2;" parent="1" vertex="1">
          <mxGeometry x="1420" y="360" width="80" height="80" as="geometry" />
        </mxCell>
        <mxCell id="0SFozulJ9GsUOCY1oSRf-3" style="edgeStyle=none;rounded=0;html=1;exitX=1;exitY=0.5;exitDx=0;exitDy=0;entryX=0.5;entryY=0;entryDx=0;entryDy=0;" parent="1" source="AT14sfKmnzvmW3W3LoaK-23" target="AT14sfKmnzvmW3W3LoaK-13" edge="1">
          <mxGeometry relative="1" as="geometry">
            <Array as="points">
              <mxPoint x="1460" y="460" />
            </Array>
          </mxGeometry>
        </mxCell>
        <mxCell id="AT14sfKmnzvmW3W3LoaK-23" value="Add New Employee" style="rounded=1;whiteSpace=wrap;html=1;arcSize=50;fontSize=10;verticalAlign=middle;fontStyle=0;spacing=2;" parent="1" vertex="1">
          <mxGeometry x="1160" y="440" width="80" height="40" as="geometry" />
        </mxCell>
        <mxCell id="0SFozulJ9GsUOCY1oSRf-9" style="edgeStyle=none;rounded=0;html=1;exitX=0.5;exitY=1;exitDx=0;exitDy=0;entryX=0.5;entryY=0;entryDx=0;entryDy=0;" parent="1" source="AT14sfKmnzvmW3W3LoaK-25" target="AT14sfKmnzvmW3W3LoaK-27" edge="1">
          <mxGeometry relative="1" as="geometry" />
        </mxCell>
        <mxCell id="AT14sfKmnzvmW3W3LoaK-25" value="Edit Employee Detail" style="rounded=1;whiteSpace=wrap;html=1;arcSize=50;fontSize=10;verticalAlign=middle;fontStyle=0;spacing=2;" parent="1" vertex="1">
          <mxGeometry x="1160" y="660" width="80" height="40" as="geometry" />
        </mxCell>
        <mxCell id="0SFozulJ9GsUOCY1oSRf-10" style="edgeStyle=none;rounded=0;html=1;exitX=1;exitY=0.5;exitDx=0;exitDy=0;entryX=0;entryY=0.5;entryDx=0;entryDy=0;" parent="1" source="AT14sfKmnzvmW3W3LoaK-27" target="Ab_32cYo5fPvLgcXpCjn-2" edge="1">
          <mxGeometry relative="1" as="geometry">
            <mxPoint x="1360" y="760" as="targetPoint" />
          </mxGeometry>
        </mxCell>
        <mxCell id="AT14sfKmnzvmW3W3LoaK-27" value="&lt;p style=&quot;line-height: 100%; font-size: 10px;&quot;&gt;Save Changes&lt;/p&gt;" style="rounded=1;whiteSpace=wrap;html=1;arcSize=50;fontSize=10;verticalAlign=middle;fontStyle=0;spacing=2;" parent="1" vertex="1">
          <mxGeometry x="1160" y="740" width="80" height="40" as="geometry" />
        </mxCell>
        <mxCell id="AT14sfKmnzvmW3W3LoaK-30" value="" style="endArrow=none;html=1;rounded=0;entryX=0.5;entryY=0;entryDx=0;entryDy=0;" parent="1" edge="1">
          <mxGeometry width="50" height="50" relative="1" as="geometry">
            <mxPoint x="1320" y="820" as="sourcePoint" />
            <mxPoint x="1320" y="100" as="targetPoint" />
          </mxGeometry>
        </mxCell>
        <mxCell id="-Oo9jaJtH-6lUm0N0lpN-2" value="" style="edgeStyle=none;rounded=0;html=1;exitX=1;exitY=0.5;exitDx=0;exitDy=0;entryX=1;entryY=0.5;entryDx=0;entryDy=0;endArrow=none;" parent="1" source="AT14sfKmnzvmW3W3LoaK-6" target="-Oo9jaJtH-6lUm0N0lpN-1" edge="1">
          <mxGeometry relative="1" as="geometry">
            <mxPoint x="1440" y="279.5" as="sourcePoint" />
            <mxPoint x="1240" y="199.5" as="targetPoint" />
            <Array as="points">
              <mxPoint x="1560" y="280" />
              <mxPoint x="1560" y="160" />
            </Array>
          </mxGeometry>
        </mxCell>
        <mxCell id="-Oo9jaJtH-6lUm0N0lpN-1" value="Allert &quot;Invalid Email or Password&quot;" style="rounded=1;whiteSpace=wrap;html=1;arcSize=50;fontSize=10;verticalAlign=middle;fontStyle=0;spacing=2;" parent="1" vertex="1">
          <mxGeometry x="1360" y="140" width="80" height="40" as="geometry" />
        </mxCell>
        <mxCell id="AZVSoFG3jw7sWkrTWtNc-1" value="Admin" style="rounded=0;whiteSpace=wrap;html=1;fillColor=none;" parent="1" vertex="1">
          <mxGeometry x="1040" y="60" width="280" height="40" as="geometry" />
        </mxCell>
        <mxCell id="AZVSoFG3jw7sWkrTWtNc-2" value="&lt;span style=&quot;font-size: 11pt;&quot; lang=&quot;EN-US&quot;&gt;Employee Management System&lt;/span&gt;" style="rounded=0;whiteSpace=wrap;html=1;fillColor=none;" parent="1" vertex="1">
          <mxGeometry x="1320" y="60" width="280" height="40" as="geometry" />
        </mxCell>
        <mxCell id="Ab_32cYo5fPvLgcXpCjn-1" value="" style="ellipse;whiteSpace=wrap;html=1;aspect=fixed;fontSize=10;verticalAlign=middle;fontStyle=0;spacing=2;fillStyle=auto;fillColor=#000000;" parent="1" vertex="1">
          <mxGeometry x="1080" y="199.5" width="40" height="40" as="geometry" />
        </mxCell>
        <mxCell id="Ab_32cYo5fPvLgcXpCjn-2" value="" style="ellipse;html=1;shape=endState;fillColor=#000000;strokeColor=#000000;" parent="1" vertex="1">
          <mxGeometry x="1440" y="740" width="40" height="40" as="geometry" />
        </mxCell>
        <mxCell id="zjcngD0HCiVlFBa4zGAY-1" value="&lt;font style=&quot;font-size: 10px;&quot;&gt;[Valid]&lt;/font&gt;" style="text;html=1;align=center;verticalAlign=middle;whiteSpace=wrap;rounded=0;" parent="1" vertex="1">
          <mxGeometry x="1370" y="260" width="60" height="20" as="geometry" />
        </mxCell>
        <mxCell id="zjcngD0HCiVlFBa4zGAY-2" value="&lt;font style=&quot;font-size: 10px;&quot;&gt;[Invalid]&lt;/font&gt;" style="text;html=1;align=center;verticalAlign=middle;whiteSpace=wrap;rounded=0;" parent="1" vertex="1">
          <mxGeometry x="1490" y="260" width="60" height="20" as="geometry" />
        </mxCell>
        <mxCell id="zjcngD0HCiVlFBa4zGAY-3" value="&lt;font style=&quot;font-size: 10px;&quot;&gt;[Doesn&#39;t Exist]&lt;/font&gt;" style="text;html=1;align=center;verticalAlign=middle;whiteSpace=wrap;rounded=0;" parent="1" vertex="1">
          <mxGeometry x="1350" y="380" width="70" height="20" as="geometry" />
        </mxCell>
        <mxCell id="zjcngD0HCiVlFBa4zGAY-4" value="&lt;font style=&quot;font-size: 10px;&quot;&gt;[Exist]&lt;/font&gt;" style="text;html=1;align=center;verticalAlign=middle;whiteSpace=wrap;rounded=0;" parent="1" vertex="1">
          <mxGeometry x="1490" y="380" width="60" height="20" as="geometry" />
        </mxCell>
        <mxCell id="WAJnuDsVxDWn4-3pr6h2-1" value="&lt;font style=&quot;font-size: 10px;&quot;&gt;[Invalid Detail]&lt;/font&gt;" style="text;html=1;align=center;verticalAlign=middle;whiteSpace=wrap;rounded=0;" parent="1" vertex="1">
          <mxGeometry x="1350" y="500" width="70" height="20" as="geometry" />
        </mxCell>
        <mxCell id="WAJnuDsVxDWn4-3pr6h2-2" value="&lt;font style=&quot;font-size: 10px;&quot;&gt;[Valid Detail]&lt;/font&gt;" style="text;html=1;align=center;verticalAlign=middle;whiteSpace=wrap;rounded=0;" parent="1" vertex="1">
          <mxGeometry x="1500" y="500" width="60" height="20" as="geometry" />
        </mxCell>
      </root>
    </mxGraphModel>
  </diagram>
  <diagram id="DjTQEiNI2g0NztFxXDDc" name="sequence-assign task">
    <mxGraphModel dx="1434" dy="836" grid="1" gridSize="10" guides="1" tooltips="1" connect="1" arrows="1" fold="1" page="1" pageScale="1" pageWidth="850" pageHeight="1100" math="0" shadow="0">
      <root>
        <mxCell id="0" />
        <mxCell id="1" parent="0" />
        <mxCell id="yfJZaZi4c0pW3WHQQDhp-4" style="edgeStyle=orthogonalEdgeStyle;rounded=0;orthogonalLoop=1;jettySize=auto;html=1;exitX=0.5;exitY=1;exitDx=0;exitDy=0;endArrow=none;endFill=0;dashed=1;dashPattern=8 8;" parent="1" source="yfJZaZi4c0pW3WHQQDhp-1" edge="1">
          <mxGeometry relative="1" as="geometry">
            <mxPoint x="220" y="820" as="targetPoint" />
          </mxGeometry>
        </mxCell>
        <mxCell id="yfJZaZi4c0pW3WHQQDhp-1" value="Manager" style="rounded=0;whiteSpace=wrap;html=1;" parent="1" vertex="1">
          <mxGeometry x="160" y="200" width="120" height="40" as="geometry" />
        </mxCell>
        <mxCell id="yfJZaZi4c0pW3WHQQDhp-2" value="Employee Management System" style="rounded=0;whiteSpace=wrap;html=1;" parent="1" vertex="1">
          <mxGeometry x="360" y="200" width="120" height="40" as="geometry" />
        </mxCell>
        <mxCell id="yfJZaZi4c0pW3WHQQDhp-6" style="edgeStyle=orthogonalEdgeStyle;rounded=0;orthogonalLoop=1;jettySize=auto;html=1;exitX=0.5;exitY=1;exitDx=0;exitDy=0;endArrow=none;endFill=0;dashed=1;dashPattern=8 8;" parent="1" source="yfJZaZi4c0pW3WHQQDhp-3" edge="1">
          <mxGeometry relative="1" as="geometry">
            <mxPoint x="620" y="820" as="targetPoint" />
          </mxGeometry>
        </mxCell>
        <mxCell id="yfJZaZi4c0pW3WHQQDhp-3" value="Employee" style="rounded=0;whiteSpace=wrap;html=1;" parent="1" vertex="1">
          <mxGeometry x="560" y="200" width="120" height="40" as="geometry" />
        </mxCell>
        <mxCell id="yfJZaZi4c0pW3WHQQDhp-7" value="" style="shape=mxgraph.sysml.x;" parent="1" vertex="1">
          <mxGeometry x="610" y="810" width="20" height="20" as="geometry" />
        </mxCell>
        <mxCell id="yfJZaZi4c0pW3WHQQDhp-8" value="" style="shape=mxgraph.sysml.x;" parent="1" vertex="1">
          <mxGeometry x="410" y="810" width="20" height="20" as="geometry" />
        </mxCell>
        <mxCell id="yfJZaZi4c0pW3WHQQDhp-9" value="" style="shape=mxgraph.sysml.x;" parent="1" vertex="1">
          <mxGeometry x="210" y="810" width="20" height="20" as="geometry" />
        </mxCell>
        <mxCell id="yfJZaZi4c0pW3WHQQDhp-10" value="" style="rounded=0;whiteSpace=wrap;html=1;" parent="1" vertex="1">
          <mxGeometry x="210" y="250" width="20" height="530" as="geometry" />
        </mxCell>
        <mxCell id="yfJZaZi4c0pW3WHQQDhp-13" value="" style="endArrow=classic;html=1;rounded=0;" parent="1" edge="1">
          <mxGeometry width="50" height="50" relative="1" as="geometry">
            <mxPoint x="230" y="280" as="sourcePoint" />
            <mxPoint x="410" y="280" as="targetPoint" />
          </mxGeometry>
        </mxCell>
        <mxCell id="yfJZaZi4c0pW3WHQQDhp-14" value="" style="endArrow=none;dashed=1;html=1;strokeWidth=1;rounded=0;startArrow=open;startFill=0;entryX=0;entryY=0.75;entryDx=0;entryDy=0;" parent="1" target="yfJZaZi4c0pW3WHQQDhp-12" edge="1">
          <mxGeometry width="50" height="50" relative="1" as="geometry">
            <mxPoint x="230" y="320" as="sourcePoint" />
            <mxPoint x="400" y="310" as="targetPoint" />
          </mxGeometry>
        </mxCell>
        <mxCell id="yfJZaZi4c0pW3WHQQDhp-15" value="" style="endArrow=classic;html=1;rounded=0;entryX=0;entryY=0.25;entryDx=0;entryDy=0;" parent="1" target="yfJZaZi4c0pW3WHQQDhp-16" edge="1">
          <mxGeometry width="50" height="50" relative="1" as="geometry">
            <mxPoint x="230" y="379.76" as="sourcePoint" />
            <mxPoint x="410" y="379.76" as="targetPoint" />
          </mxGeometry>
        </mxCell>
        <mxCell id="yfJZaZi4c0pW3WHQQDhp-16" value="" style="rounded=0;whiteSpace=wrap;html=1;" parent="1" vertex="1">
          <mxGeometry x="610" y="360" width="20" height="80" as="geometry" />
        </mxCell>
        <mxCell id="yfJZaZi4c0pW3WHQQDhp-19" value="" style="edgeStyle=orthogonalEdgeStyle;rounded=0;orthogonalLoop=1;jettySize=auto;html=1;exitX=0.5;exitY=1;exitDx=0;exitDy=0;endArrow=none;endFill=0;dashed=1;dashPattern=8 8;" parent="1" source="yfJZaZi4c0pW3WHQQDhp-2" edge="1">
          <mxGeometry relative="1" as="geometry">
            <mxPoint x="420" y="820" as="targetPoint" />
            <mxPoint x="420" y="240" as="sourcePoint" />
          </mxGeometry>
        </mxCell>
        <mxCell id="yfJZaZi4c0pW3WHQQDhp-22" value="" style="endArrow=none;dashed=1;html=1;strokeWidth=1;rounded=0;startArrow=open;startFill=0;entryX=0;entryY=0.75;entryDx=0;entryDy=0;" parent="1" target="yfJZaZi4c0pW3WHQQDhp-16" edge="1">
          <mxGeometry width="50" height="50" relative="1" as="geometry">
            <mxPoint x="230" y="420" as="sourcePoint" />
            <mxPoint x="410" y="420" as="targetPoint" />
          </mxGeometry>
        </mxCell>
        <mxCell id="yfJZaZi4c0pW3WHQQDhp-29" value="" style="rounded=0;whiteSpace=wrap;html=1;" parent="1" vertex="1">
          <mxGeometry x="410" y="680" width="20" height="80" as="geometry" />
        </mxCell>
        <mxCell id="yfJZaZi4c0pW3WHQQDhp-30" value="" style="endArrow=classic;html=1;rounded=0;" parent="1" edge="1">
          <mxGeometry width="50" height="50" relative="1" as="geometry">
            <mxPoint x="230" y="700" as="sourcePoint" />
            <mxPoint x="410" y="700" as="targetPoint" />
          </mxGeometry>
        </mxCell>
        <mxCell id="yfJZaZi4c0pW3WHQQDhp-31" value="" style="endArrow=none;dashed=1;html=1;strokeWidth=1;rounded=0;startArrow=open;startFill=0;entryX=0;entryY=0.75;entryDx=0;entryDy=0;" parent="1" target="yfJZaZi4c0pW3WHQQDhp-29" edge="1">
          <mxGeometry width="50" height="50" relative="1" as="geometry">
            <mxPoint x="230" y="740" as="sourcePoint" />
            <mxPoint x="400" y="730" as="targetPoint" />
          </mxGeometry>
        </mxCell>
        <mxCell id="yfJZaZi4c0pW3WHQQDhp-32" value="1. Log in" style="text;html=1;strokeColor=none;fillColor=none;align=center;verticalAlign=middle;whiteSpace=wrap;rounded=0;" parent="1" vertex="1">
          <mxGeometry x="280" y="260" width="80" height="20" as="geometry" />
        </mxCell>
        <mxCell id="yfJZaZi4c0pW3WHQQDhp-33" value="2. System access" style="text;html=1;strokeColor=none;fillColor=none;align=center;verticalAlign=middle;whiteSpace=wrap;rounded=0;" parent="1" vertex="1">
          <mxGeometry x="260" y="300" width="120" height="20" as="geometry" />
        </mxCell>
        <mxCell id="yfJZaZi4c0pW3WHQQDhp-34" value="3. Check For available Employee" style="text;html=1;strokeColor=none;fillColor=none;align=center;verticalAlign=middle;whiteSpace=wrap;rounded=0;" parent="1" vertex="1">
          <mxGeometry x="230" y="360" width="190" height="20" as="geometry" />
        </mxCell>
        <mxCell id="yfJZaZi4c0pW3WHQQDhp-37" value="" style="rounded=0;whiteSpace=wrap;html=1;" parent="1" vertex="1">
          <mxGeometry x="410" y="440" width="20" height="120" as="geometry" />
        </mxCell>
        <mxCell id="yfJZaZi4c0pW3WHQQDhp-38" value="4. List of&amp;nbsp;available Employee" style="text;html=1;strokeColor=none;fillColor=none;align=center;verticalAlign=middle;whiteSpace=wrap;rounded=0;" parent="1" vertex="1">
          <mxGeometry x="430" y="400" width="160" height="20" as="geometry" />
        </mxCell>
        <mxCell id="yfJZaZi4c0pW3WHQQDhp-39" value="" style="endArrow=classic;html=1;rounded=0;" parent="1" edge="1">
          <mxGeometry width="50" height="50" relative="1" as="geometry">
            <mxPoint x="230" y="600" as="sourcePoint" />
            <mxPoint x="410" y="600" as="targetPoint" />
          </mxGeometry>
        </mxCell>
        <mxCell id="yfJZaZi4c0pW3WHQQDhp-40" value="9. Check status of Tasks" style="text;html=1;strokeColor=none;fillColor=none;align=center;verticalAlign=middle;whiteSpace=wrap;rounded=0;" parent="1" vertex="1">
          <mxGeometry x="250" y="580" width="140" height="20" as="geometry" />
        </mxCell>
        <mxCell id="yfJZaZi4c0pW3WHQQDhp-12" value="" style="rounded=0;whiteSpace=wrap;html=1;" parent="1" vertex="1">
          <mxGeometry x="410" y="260" width="20" height="80" as="geometry" />
        </mxCell>
        <mxCell id="yfJZaZi4c0pW3WHQQDhp-41" value="" style="rounded=0;whiteSpace=wrap;html=1;" parent="1" vertex="1">
          <mxGeometry x="410" y="580" width="20" height="80" as="geometry" />
        </mxCell>
        <mxCell id="yfJZaZi4c0pW3WHQQDhp-42" value="" style="endArrow=none;dashed=1;html=1;strokeWidth=1;rounded=0;startArrow=open;startFill=0;entryX=0;entryY=0.75;entryDx=0;entryDy=0;" parent="1" edge="1">
          <mxGeometry width="50" height="50" relative="1" as="geometry">
            <mxPoint x="230" y="640" as="sourcePoint" />
            <mxPoint x="410" y="640" as="targetPoint" />
          </mxGeometry>
        </mxCell>
        <mxCell id="yfJZaZi4c0pW3WHQQDhp-44" value="10. List of Tasks" style="text;html=1;strokeColor=none;fillColor=none;align=center;verticalAlign=middle;whiteSpace=wrap;rounded=0;" parent="1" vertex="1">
          <mxGeometry x="250" y="620" width="140" height="20" as="geometry" />
        </mxCell>
        <mxCell id="yfJZaZi4c0pW3WHQQDhp-45" value="11. Log out" style="text;html=1;strokeColor=none;fillColor=none;align=center;verticalAlign=middle;whiteSpace=wrap;rounded=0;" parent="1" vertex="1">
          <mxGeometry x="250" y="680" width="140" height="20" as="geometry" />
        </mxCell>
        <mxCell id="yfJZaZi4c0pW3WHQQDhp-46" value="12. System access revoked" style="text;html=1;strokeColor=none;fillColor=none;align=center;verticalAlign=middle;whiteSpace=wrap;rounded=0;" parent="1" vertex="1">
          <mxGeometry x="240" y="720" width="160" height="20" as="geometry" />
        </mxCell>
        <mxCell id="yfJZaZi4c0pW3WHQQDhp-49" value="" style="endArrow=classic;html=1;rounded=0;" parent="1" edge="1">
          <mxGeometry width="50" height="50" relative="1" as="geometry">
            <mxPoint x="230" y="459.71000000000004" as="sourcePoint" />
            <mxPoint x="410" y="459.71000000000004" as="targetPoint" />
          </mxGeometry>
        </mxCell>
        <mxCell id="yfJZaZi4c0pW3WHQQDhp-50" value="5. Assign task to available&amp;nbsp; Employee" style="text;html=1;strokeColor=none;fillColor=none;align=center;verticalAlign=middle;whiteSpace=wrap;rounded=0;" parent="1" vertex="1">
          <mxGeometry x="230" y="430" width="180" height="30" as="geometry" />
        </mxCell>
        <mxCell id="yfJZaZi4c0pW3WHQQDhp-52" value="" style="rounded=0;whiteSpace=wrap;html=1;" parent="1" vertex="1">
          <mxGeometry x="610" y="460" width="20" height="80" as="geometry" />
        </mxCell>
        <mxCell id="yfJZaZi4c0pW3WHQQDhp-53" value="" style="endArrow=classic;html=1;rounded=0;" parent="1" edge="1">
          <mxGeometry width="50" height="50" relative="1" as="geometry">
            <mxPoint x="430" y="480" as="sourcePoint" />
            <mxPoint x="610" y="480" as="targetPoint" />
          </mxGeometry>
        </mxCell>
        <mxCell id="yfJZaZi4c0pW3WHQQDhp-54" value="6. Task assigned" style="text;html=1;strokeColor=none;fillColor=none;align=center;verticalAlign=middle;whiteSpace=wrap;rounded=0;" parent="1" vertex="1">
          <mxGeometry x="450" y="460" width="120" height="20" as="geometry" />
        </mxCell>
        <mxCell id="yfJZaZi4c0pW3WHQQDhp-59" value="" style="endArrow=none;dashed=1;html=1;strokeWidth=1;rounded=0;startArrow=open;startFill=0;entryX=0;entryY=0.75;entryDx=0;entryDy=0;" parent="1" edge="1">
          <mxGeometry width="50" height="50" relative="1" as="geometry">
            <mxPoint x="430" y="520" as="sourcePoint" />
            <mxPoint x="610" y="520" as="targetPoint" />
          </mxGeometry>
        </mxCell>
        <mxCell id="yfJZaZi4c0pW3WHQQDhp-60" value="" style="endArrow=none;dashed=1;html=1;strokeWidth=1;rounded=0;startArrow=open;startFill=0;entryX=0;entryY=0.75;entryDx=0;entryDy=0;" parent="1" edge="1">
          <mxGeometry width="50" height="50" relative="1" as="geometry">
            <mxPoint x="230" y="540" as="sourcePoint" />
            <mxPoint x="410" y="540" as="targetPoint" />
          </mxGeometry>
        </mxCell>
        <mxCell id="yfJZaZi4c0pW3WHQQDhp-61" value="7. Update status of Task" style="text;html=1;strokeColor=none;fillColor=none;align=center;verticalAlign=middle;whiteSpace=wrap;rounded=0;" parent="1" vertex="1">
          <mxGeometry x="450" y="500" width="140" height="20" as="geometry" />
        </mxCell>
        <mxCell id="yfJZaZi4c0pW3WHQQDhp-62" value="8. Updated Status" style="text;html=1;strokeColor=none;fillColor=none;align=center;verticalAlign=middle;whiteSpace=wrap;rounded=0;" parent="1" vertex="1">
          <mxGeometry x="250" y="520" width="140" height="20" as="geometry" />
        </mxCell>
      </root>
    </mxGraphModel>
  </diagram>
  <diagram id="zkxNugQ6lsVtnhCvJask" name="sequence-leave">
    <mxGraphModel dx="1434" dy="836" grid="1" gridSize="10" guides="1" tooltips="1" connect="1" arrows="1" fold="1" page="1" pageScale="1" pageWidth="850" pageHeight="1100" math="0" shadow="0">
      <root>
        <mxCell id="0" />
        <mxCell id="1" parent="0" />
        <mxCell id="VoPrBYjEE7m0Ngr5WFnp-6" style="edgeStyle=orthogonalEdgeStyle;rounded=0;orthogonalLoop=1;jettySize=auto;html=1;exitX=0.5;exitY=1;exitDx=0;exitDy=0;endArrow=none;endFill=0;dashed=1;dashPattern=12 12;" parent="1" source="VoPrBYjEE7m0Ngr5WFnp-1" edge="1">
          <mxGeometry relative="1" as="geometry">
            <mxPoint x="620" y="600" as="targetPoint" />
          </mxGeometry>
        </mxCell>
        <mxCell id="VoPrBYjEE7m0Ngr5WFnp-1" value="Manager" style="rounded=0;whiteSpace=wrap;html=1;" parent="1" vertex="1">
          <mxGeometry x="560" y="160" width="120" height="40" as="geometry" />
        </mxCell>
        <mxCell id="VoPrBYjEE7m0Ngr5WFnp-5" style="edgeStyle=orthogonalEdgeStyle;rounded=0;orthogonalLoop=1;jettySize=auto;html=1;exitX=0.5;exitY=1;exitDx=0;exitDy=0;endArrow=none;endFill=0;dashed=1;dashPattern=12 12;" parent="1" source="VoPrBYjEE7m0Ngr5WFnp-2" edge="1">
          <mxGeometry relative="1" as="geometry">
            <mxPoint x="420" y="600" as="targetPoint" />
          </mxGeometry>
        </mxCell>
        <mxCell id="VoPrBYjEE7m0Ngr5WFnp-2" value="Employee Management System" style="rounded=0;whiteSpace=wrap;html=1;" parent="1" vertex="1">
          <mxGeometry x="360" y="160" width="120" height="40" as="geometry" />
        </mxCell>
        <mxCell id="VoPrBYjEE7m0Ngr5WFnp-4" style="edgeStyle=orthogonalEdgeStyle;rounded=0;orthogonalLoop=1;jettySize=auto;html=1;exitX=0.5;exitY=1;exitDx=0;exitDy=0;endArrow=none;endFill=0;dashed=1;dashPattern=12 12;" parent="1" source="VoPrBYjEE7m0Ngr5WFnp-3" edge="1">
          <mxGeometry relative="1" as="geometry">
            <mxPoint x="220" y="600" as="targetPoint" />
          </mxGeometry>
        </mxCell>
        <mxCell id="VoPrBYjEE7m0Ngr5WFnp-3" value="Employee" style="rounded=0;whiteSpace=wrap;html=1;" parent="1" vertex="1">
          <mxGeometry x="160" y="160" width="120" height="40" as="geometry" />
        </mxCell>
        <mxCell id="VoPrBYjEE7m0Ngr5WFnp-7" value="" style="rounded=0;whiteSpace=wrap;html=1;" parent="1" vertex="1">
          <mxGeometry x="210" y="220" width="20" height="340" as="geometry" />
        </mxCell>
        <mxCell id="aHfNuRoJNuEYvVh8A6xR-1" value="" style="endArrow=classic;html=1;rounded=0;" parent="1" edge="1">
          <mxGeometry width="50" height="50" relative="1" as="geometry">
            <mxPoint x="230" y="240" as="sourcePoint" />
            <mxPoint x="410" y="240" as="targetPoint" />
          </mxGeometry>
        </mxCell>
        <mxCell id="aHfNuRoJNuEYvVh8A6xR-2" value="" style="endArrow=none;dashed=1;html=1;strokeWidth=1;rounded=0;startArrow=open;startFill=0;entryX=0;entryY=0.75;entryDx=0;entryDy=0;" parent="1" target="aHfNuRoJNuEYvVh8A6xR-5" edge="1">
          <mxGeometry width="50" height="50" relative="1" as="geometry">
            <mxPoint x="230" y="280" as="sourcePoint" />
            <mxPoint x="400" y="270" as="targetPoint" />
          </mxGeometry>
        </mxCell>
        <mxCell id="aHfNuRoJNuEYvVh8A6xR-3" value="1. Log in" style="text;html=1;strokeColor=none;fillColor=none;align=center;verticalAlign=middle;whiteSpace=wrap;rounded=0;" parent="1" vertex="1">
          <mxGeometry x="280" y="220" width="80" height="20" as="geometry" />
        </mxCell>
        <mxCell id="aHfNuRoJNuEYvVh8A6xR-4" value="2. System access" style="text;html=1;strokeColor=none;fillColor=none;align=center;verticalAlign=middle;whiteSpace=wrap;rounded=0;" parent="1" vertex="1">
          <mxGeometry x="260" y="260" width="120" height="20" as="geometry" />
        </mxCell>
        <mxCell id="aHfNuRoJNuEYvVh8A6xR-5" value="" style="rounded=0;whiteSpace=wrap;html=1;" parent="1" vertex="1">
          <mxGeometry x="410" y="220" width="20" height="80" as="geometry" />
        </mxCell>
        <mxCell id="mKlRsYXuEQH87BL2rR3Q-1" value="" style="endArrow=classic;html=1;rounded=0;" parent="1" edge="1">
          <mxGeometry width="50" height="50" relative="1" as="geometry">
            <mxPoint x="230" y="340" as="sourcePoint" />
            <mxPoint x="410" y="340" as="targetPoint" />
          </mxGeometry>
        </mxCell>
        <mxCell id="SqJpkPIaiLipV2dBZdaS-1" value="" style="rounded=0;whiteSpace=wrap;html=1;" parent="1" vertex="1">
          <mxGeometry x="410" y="320" width="20" height="120" as="geometry" />
        </mxCell>
        <mxCell id="SqJpkPIaiLipV2dBZdaS-2" value="" style="endArrow=classic;html=1;rounded=0;" parent="1" edge="1">
          <mxGeometry width="50" height="50" relative="1" as="geometry">
            <mxPoint x="430" y="359.76" as="sourcePoint" />
            <mxPoint x="610" y="359.76" as="targetPoint" />
          </mxGeometry>
        </mxCell>
        <mxCell id="SqJpkPIaiLipV2dBZdaS-3" value="" style="rounded=0;whiteSpace=wrap;html=1;" parent="1" vertex="1">
          <mxGeometry x="610" y="340" width="20" height="80" as="geometry" />
        </mxCell>
        <mxCell id="SqJpkPIaiLipV2dBZdaS-4" value="3. Apply for Leave" style="text;html=1;strokeColor=none;fillColor=none;align=center;verticalAlign=middle;whiteSpace=wrap;rounded=0;" parent="1" vertex="1">
          <mxGeometry x="260" y="320" width="120" height="20" as="geometry" />
        </mxCell>
        <mxCell id="NCioxBbZ33tLEZ3fgk5K-1" value="4.Pending for approval" style="text;html=1;strokeColor=none;fillColor=none;align=center;verticalAlign=middle;whiteSpace=wrap;rounded=0;" parent="1" vertex="1">
          <mxGeometry x="450" y="340" width="140" height="20" as="geometry" />
        </mxCell>
        <mxCell id="NCioxBbZ33tLEZ3fgk5K-2" value="" style="endArrow=none;dashed=1;html=1;strokeWidth=1;rounded=0;startArrow=open;startFill=0;entryX=0;entryY=0.75;entryDx=0;entryDy=0;" parent="1" edge="1">
          <mxGeometry width="50" height="50" relative="1" as="geometry">
            <mxPoint x="430" y="400" as="sourcePoint" />
            <mxPoint x="610" y="400" as="targetPoint" />
          </mxGeometry>
        </mxCell>
        <mxCell id="NCioxBbZ33tLEZ3fgk5K-3" value="5. Leave approved" style="text;html=1;strokeColor=none;fillColor=none;align=center;verticalAlign=middle;whiteSpace=wrap;rounded=0;" parent="1" vertex="1">
          <mxGeometry x="450" y="380" width="140" height="20" as="geometry" />
        </mxCell>
        <mxCell id="NCioxBbZ33tLEZ3fgk5K-4" value="" style="endArrow=none;dashed=1;html=1;strokeWidth=1;rounded=0;startArrow=open;startFill=0;entryX=0;entryY=0.75;entryDx=0;entryDy=0;" parent="1" edge="1">
          <mxGeometry width="50" height="50" relative="1" as="geometry">
            <mxPoint x="230" y="420" as="sourcePoint" />
            <mxPoint x="410" y="420" as="targetPoint" />
          </mxGeometry>
        </mxCell>
        <mxCell id="NCioxBbZ33tLEZ3fgk5K-5" value="6. Notification of&amp;nbsp;approval" style="text;html=1;strokeColor=none;fillColor=none;align=center;verticalAlign=middle;whiteSpace=wrap;rounded=0;" parent="1" vertex="1">
          <mxGeometry x="250" y="400" width="140" height="20" as="geometry" />
        </mxCell>
        <mxCell id="NCioxBbZ33tLEZ3fgk5K-6" value="" style="endArrow=classic;html=1;rounded=0;" parent="1" edge="1">
          <mxGeometry width="50" height="50" relative="1" as="geometry">
            <mxPoint x="230" y="480" as="sourcePoint" />
            <mxPoint x="410" y="480" as="targetPoint" />
          </mxGeometry>
        </mxCell>
        <mxCell id="NCioxBbZ33tLEZ3fgk5K-7" value="" style="endArrow=none;dashed=1;html=1;strokeWidth=1;rounded=0;startArrow=open;startFill=0;entryX=0;entryY=0.75;entryDx=0;entryDy=0;" parent="1" target="NCioxBbZ33tLEZ3fgk5K-10" edge="1">
          <mxGeometry width="50" height="50" relative="1" as="geometry">
            <mxPoint x="230" y="520" as="sourcePoint" />
            <mxPoint x="400" y="510" as="targetPoint" />
          </mxGeometry>
        </mxCell>
        <mxCell id="NCioxBbZ33tLEZ3fgk5K-8" value="7. View Previos Leaves" style="text;html=1;strokeColor=none;fillColor=none;align=center;verticalAlign=middle;whiteSpace=wrap;rounded=0;" parent="1" vertex="1">
          <mxGeometry x="250" y="460" width="140" height="20" as="geometry" />
        </mxCell>
        <mxCell id="NCioxBbZ33tLEZ3fgk5K-9" value="8. List of leaves" style="text;html=1;strokeColor=none;fillColor=none;align=center;verticalAlign=middle;whiteSpace=wrap;rounded=0;" parent="1" vertex="1">
          <mxGeometry x="260" y="500" width="120" height="20" as="geometry" />
        </mxCell>
        <mxCell id="NCioxBbZ33tLEZ3fgk5K-10" value="" style="rounded=0;whiteSpace=wrap;html=1;" parent="1" vertex="1">
          <mxGeometry x="410" y="460" width="20" height="80" as="geometry" />
        </mxCell>
        <mxCell id="DbWsSxUeUMRHmOgIQ-5n-1" value="" style="shape=mxgraph.sysml.x;" parent="1" vertex="1">
          <mxGeometry x="210" y="590" width="20" height="20" as="geometry" />
        </mxCell>
        <mxCell id="J9t0BpUTMkKTHzJ3Ult2-1" value="" style="shape=mxgraph.sysml.x;" parent="1" vertex="1">
          <mxGeometry x="410" y="590" width="20" height="20" as="geometry" />
        </mxCell>
        <mxCell id="J9t0BpUTMkKTHzJ3Ult2-2" value="" style="shape=mxgraph.sysml.x;" parent="1" vertex="1">
          <mxGeometry x="610" y="590" width="20" height="20" as="geometry" />
        </mxCell>
      </root>
    </mxGraphModel>
  </diagram>
  <diagram id="nDz25kZtsJTdCkD8pXHg" name="State-task">
    <mxGraphModel dx="1793" dy="1045" grid="1" gridSize="10" guides="1" tooltips="1" connect="1" arrows="1" fold="1" page="1" pageScale="1" pageWidth="850" pageHeight="1100" math="0" shadow="0">
      <root>
        <mxCell id="0" />
        <mxCell id="1" parent="0" />
        <mxCell id="iBWYFtiBr-GqLZNVYWlN-28" value="" style="rounded=0;whiteSpace=wrap;html=1;fillColor=none;" parent="1" vertex="1">
          <mxGeometry x="160" y="240" width="520" height="640" as="geometry" />
        </mxCell>
        <mxCell id="iBWYFtiBr-GqLZNVYWlN-10" style="edgeStyle=orthogonalEdgeStyle;rounded=0;orthogonalLoop=1;jettySize=auto;html=1;exitX=0.5;exitY=1;exitDx=0;exitDy=0;entryX=0.5;entryY=0;entryDx=0;entryDy=0;" parent="1" source="gGI6DtSpj1r9RCcnQUxM-2" target="gGI6DtSpj1r9RCcnQUxM-3" edge="1">
          <mxGeometry relative="1" as="geometry" />
        </mxCell>
        <mxCell id="gGI6DtSpj1r9RCcnQUxM-2" value="New Task" style="rounded=1;whiteSpace=wrap;html=1;arcSize=50;" parent="1" vertex="1">
          <mxGeometry x="260" y="360" width="120" height="40" as="geometry" />
        </mxCell>
        <mxCell id="iBWYFtiBr-GqLZNVYWlN-23" style="edgeStyle=orthogonalEdgeStyle;rounded=0;orthogonalLoop=1;jettySize=auto;html=1;exitX=0.5;exitY=1;exitDx=0;exitDy=0;entryX=0.5;entryY=0;entryDx=0;entryDy=0;" parent="1" source="gGI6DtSpj1r9RCcnQUxM-3" target="gGI6DtSpj1r9RCcnQUxM-4" edge="1">
          <mxGeometry relative="1" as="geometry" />
        </mxCell>
        <mxCell id="gGI6DtSpj1r9RCcnQUxM-3" value="Assign Task" style="rounded=1;whiteSpace=wrap;html=1;arcSize=50;" parent="1" vertex="1">
          <mxGeometry x="260" y="480" width="120" height="40" as="geometry" />
        </mxCell>
        <mxCell id="iBWYFtiBr-GqLZNVYWlN-24" style="edgeStyle=orthogonalEdgeStyle;rounded=0;orthogonalLoop=1;jettySize=auto;html=1;exitX=0.75;exitY=0;exitDx=0;exitDy=0;entryX=0.25;entryY=0;entryDx=0;entryDy=0;" parent="1" source="gGI6DtSpj1r9RCcnQUxM-4" target="gGI6DtSpj1r9RCcnQUxM-5" edge="1">
          <mxGeometry relative="1" as="geometry">
            <Array as="points">
              <mxPoint x="350" y="580" />
              <mxPoint x="510" y="580" />
            </Array>
          </mxGeometry>
        </mxCell>
        <mxCell id="gGI6DtSpj1r9RCcnQUxM-4" value="Perform Task" style="rounded=1;whiteSpace=wrap;html=1;arcSize=50;" parent="1" vertex="1">
          <mxGeometry x="260" y="600" width="120" height="40" as="geometry" />
        </mxCell>
        <mxCell id="iBWYFtiBr-GqLZNVYWlN-25" style="edgeStyle=orthogonalEdgeStyle;rounded=0;orthogonalLoop=1;jettySize=auto;html=1;exitX=0.25;exitY=1;exitDx=0;exitDy=0;entryX=0.75;entryY=1;entryDx=0;entryDy=0;" parent="1" source="gGI6DtSpj1r9RCcnQUxM-5" target="gGI6DtSpj1r9RCcnQUxM-4" edge="1">
          <mxGeometry relative="1" as="geometry">
            <Array as="points">
              <mxPoint x="510" y="660" />
              <mxPoint x="350" y="660" />
            </Array>
          </mxGeometry>
        </mxCell>
        <mxCell id="iBWYFtiBr-GqLZNVYWlN-26" style="edgeStyle=orthogonalEdgeStyle;rounded=0;orthogonalLoop=1;jettySize=auto;html=1;exitX=0.5;exitY=1;exitDx=0;exitDy=0;entryX=0.5;entryY=0;entryDx=0;entryDy=0;" parent="1" source="gGI6DtSpj1r9RCcnQUxM-5" target="gGI6DtSpj1r9RCcnQUxM-6" edge="1">
          <mxGeometry relative="1" as="geometry" />
        </mxCell>
        <mxCell id="gGI6DtSpj1r9RCcnQUxM-5" value="Update Status&amp;nbsp;&lt;div&gt;of Task&lt;/div&gt;" style="rounded=1;whiteSpace=wrap;html=1;arcSize=50;" parent="1" vertex="1">
          <mxGeometry x="480" y="600" width="120" height="40" as="geometry" />
        </mxCell>
        <mxCell id="iBWYFtiBr-GqLZNVYWlN-27" style="edgeStyle=orthogonalEdgeStyle;rounded=0;orthogonalLoop=1;jettySize=auto;html=1;exitX=0.5;exitY=1;exitDx=0;exitDy=0;entryX=0.5;entryY=0;entryDx=0;entryDy=0;" parent="1" source="gGI6DtSpj1r9RCcnQUxM-6" target="iBWYFtiBr-GqLZNVYWlN-2" edge="1">
          <mxGeometry relative="1" as="geometry" />
        </mxCell>
        <mxCell id="gGI6DtSpj1r9RCcnQUxM-6" value="Task Complete" style="rounded=1;whiteSpace=wrap;html=1;arcSize=50;" parent="1" vertex="1">
          <mxGeometry x="480" y="730" width="120" height="40" as="geometry" />
        </mxCell>
        <mxCell id="iBWYFtiBr-GqLZNVYWlN-3" style="edgeStyle=orthogonalEdgeStyle;rounded=0;orthogonalLoop=1;jettySize=auto;html=1;exitX=0.5;exitY=1;exitDx=0;exitDy=0;entryX=0.5;entryY=0;entryDx=0;entryDy=0;" parent="1" source="iBWYFtiBr-GqLZNVYWlN-1" target="gGI6DtSpj1r9RCcnQUxM-2" edge="1">
          <mxGeometry relative="1" as="geometry" />
        </mxCell>
        <mxCell id="iBWYFtiBr-GqLZNVYWlN-1" value="" style="ellipse;whiteSpace=wrap;html=1;aspect=fixed;fontSize=10;verticalAlign=middle;fontStyle=0;spacing=2;fillStyle=auto;fillColor=#000000;" parent="1" vertex="1">
          <mxGeometry x="300" y="280" width="40" height="40" as="geometry" />
        </mxCell>
        <mxCell id="iBWYFtiBr-GqLZNVYWlN-2" value="" style="ellipse;html=1;shape=endState;fillColor=#000000;strokeColor=#000000;" parent="1" vertex="1">
          <mxGeometry x="520" y="800" width="40" height="40" as="geometry" />
        </mxCell>
        <mxCell id="iBWYFtiBr-GqLZNVYWlN-16" value="New Task Is Assign&amp;nbsp;&lt;div&gt;to an Employee&lt;/div&gt;" style="text;html=1;align=center;verticalAlign=middle;whiteSpace=wrap;rounded=0;" parent="1" vertex="1">
          <mxGeometry x="200" y="420" width="120" height="40" as="geometry" />
        </mxCell>
        <mxCell id="iBWYFtiBr-GqLZNVYWlN-17" value="Employee Works&amp;nbsp;&lt;div&gt;on the Task&lt;/div&gt;" style="text;html=1;align=center;verticalAlign=middle;whiteSpace=wrap;rounded=0;" parent="1" vertex="1">
          <mxGeometry x="220" y="540" width="100" height="40" as="geometry" />
        </mxCell>
        <mxCell id="iBWYFtiBr-GqLZNVYWlN-18" value="Update the status of task When Completed" style="text;html=1;align=center;verticalAlign=middle;whiteSpace=wrap;rounded=0;rotation=0;" parent="1" vertex="1">
          <mxGeometry x="350" y="540" width="160" height="40" as="geometry" />
        </mxCell>
        <mxCell id="iBWYFtiBr-GqLZNVYWlN-19" value="New&amp;nbsp;changes on the Task" style="text;html=1;align=center;verticalAlign=middle;whiteSpace=wrap;rounded=0;rotation=0;" parent="1" vertex="1">
          <mxGeometry x="350" y="660" width="160" height="20" as="geometry" />
        </mxCell>
        <mxCell id="iBWYFtiBr-GqLZNVYWlN-20" value="Task Approved by Manager" style="text;html=1;align=center;verticalAlign=middle;whiteSpace=wrap;rounded=0;" parent="1" vertex="1">
          <mxGeometry x="540" y="660" width="100" height="40" as="geometry" />
        </mxCell>
        <mxCell id="iBWYFtiBr-GqLZNVYWlN-29" value="&lt;font style=&quot;font-size: 15px;&quot;&gt;&lt;b&gt;Task&lt;/b&gt;&lt;/font&gt;" style="text;html=1;align=center;verticalAlign=middle;whiteSpace=wrap;rounded=0;" parent="1" vertex="1">
          <mxGeometry x="160" y="240" width="80" height="40" as="geometry" />
        </mxCell>
        <mxCell id="iBWYFtiBr-GqLZNVYWlN-30" value="" style="endArrow=none;html=1;rounded=0;" parent="1" edge="1">
          <mxGeometry width="50" height="50" relative="1" as="geometry">
            <mxPoint x="160" y="280" as="sourcePoint" />
            <mxPoint x="260" y="240" as="targetPoint" />
            <Array as="points">
              <mxPoint x="240" y="280" />
              <mxPoint x="260" y="260" />
            </Array>
          </mxGeometry>
        </mxCell>
      </root>
    </mxGraphModel>
  </diagram>
  <diagram id="0-tyZ0NuqUdhhezCYhN_" name="State-Leave">
    <mxGraphModel dx="1247" dy="727" grid="1" gridSize="10" guides="1" tooltips="1" connect="1" arrows="1" fold="1" page="1" pageScale="1" pageWidth="850" pageHeight="1100" math="0" shadow="0">
      <root>
        <mxCell id="0" />
        <mxCell id="1" parent="0" />
        <mxCell id="18B_cS0ttKwLjLUPz1oV-14" value="" style="rounded=0;whiteSpace=wrap;html=1;fillColor=none;" vertex="1" parent="1">
          <mxGeometry x="200" y="280" width="440" height="560" as="geometry" />
        </mxCell>
        <mxCell id="18B_cS0ttKwLjLUPz1oV-4" style="edgeStyle=orthogonalEdgeStyle;rounded=0;orthogonalLoop=1;jettySize=auto;html=1;exitX=0.5;exitY=1;exitDx=0;exitDy=0;entryX=0.5;entryY=0;entryDx=0;entryDy=0;" edge="1" parent="1" source="EF1PDdHVG_PbxNVuBeev-1" target="EF1PDdHVG_PbxNVuBeev-2">
          <mxGeometry relative="1" as="geometry" />
        </mxCell>
        <mxCell id="EF1PDdHVG_PbxNVuBeev-1" value="New Application &lt;br&gt;for Leave" style="rounded=1;whiteSpace=wrap;html=1;arcSize=50;" parent="1" vertex="1">
          <mxGeometry x="360" y="400" width="120" height="40" as="geometry" />
        </mxCell>
        <mxCell id="18B_cS0ttKwLjLUPz1oV-5" style="edgeStyle=orthogonalEdgeStyle;rounded=0;orthogonalLoop=1;jettySize=auto;html=1;exitX=0;exitY=0.5;exitDx=0;exitDy=0;entryX=0.5;entryY=0;entryDx=0;entryDy=0;" edge="1" parent="1" source="EF1PDdHVG_PbxNVuBeev-2" target="kmxl4OPI0UMRSetN1KZW-1">
          <mxGeometry relative="1" as="geometry" />
        </mxCell>
        <mxCell id="18B_cS0ttKwLjLUPz1oV-6" style="edgeStyle=orthogonalEdgeStyle;rounded=0;orthogonalLoop=1;jettySize=auto;html=1;exitX=1;exitY=0.5;exitDx=0;exitDy=0;entryX=0.5;entryY=0;entryDx=0;entryDy=0;" edge="1" parent="1" source="EF1PDdHVG_PbxNVuBeev-2" target="kmxl4OPI0UMRSetN1KZW-2">
          <mxGeometry relative="1" as="geometry" />
        </mxCell>
        <mxCell id="EF1PDdHVG_PbxNVuBeev-2" value="Pending Leaves&amp;nbsp;" style="rounded=1;whiteSpace=wrap;html=1;arcSize=50;" parent="1" vertex="1">
          <mxGeometry x="360" y="520" width="120" height="40" as="geometry" />
        </mxCell>
        <mxCell id="18B_cS0ttKwLjLUPz1oV-7" style="edgeStyle=orthogonalEdgeStyle;rounded=0;orthogonalLoop=1;jettySize=auto;html=1;exitX=0.5;exitY=1;exitDx=0;exitDy=0;entryX=0;entryY=0.5;entryDx=0;entryDy=0;" edge="1" parent="1" source="kmxl4OPI0UMRSetN1KZW-1" target="XQoQBEAJUf5u4z0eLD-v-1">
          <mxGeometry relative="1" as="geometry">
            <mxPoint x="360" y="780.0000000000002" as="targetPoint" />
          </mxGeometry>
        </mxCell>
        <mxCell id="kmxl4OPI0UMRSetN1KZW-1" value="Approved" style="rounded=1;whiteSpace=wrap;html=1;arcSize=50;" parent="1" vertex="1">
          <mxGeometry x="240" y="640" width="120" height="40" as="geometry" />
        </mxCell>
        <mxCell id="18B_cS0ttKwLjLUPz1oV-8" style="edgeStyle=orthogonalEdgeStyle;rounded=0;orthogonalLoop=1;jettySize=auto;html=1;exitX=0.5;exitY=1;exitDx=0;exitDy=0;entryX=1;entryY=0.5;entryDx=0;entryDy=0;" edge="1" parent="1" source="kmxl4OPI0UMRSetN1KZW-2" target="XQoQBEAJUf5u4z0eLD-v-1">
          <mxGeometry relative="1" as="geometry">
            <mxPoint x="480" y="780.0000000000002" as="targetPoint" />
          </mxGeometry>
        </mxCell>
        <mxCell id="kmxl4OPI0UMRSetN1KZW-2" value="Rejected" style="rounded=1;whiteSpace=wrap;html=1;arcSize=50;" parent="1" vertex="1">
          <mxGeometry x="480" y="640" width="120" height="40" as="geometry" />
        </mxCell>
        <mxCell id="2e4PK4rcVVkY7cT2aezL-3" style="edgeStyle=orthogonalEdgeStyle;rounded=0;orthogonalLoop=1;jettySize=auto;html=1;exitX=0.5;exitY=1;exitDx=0;exitDy=0;entryX=0.5;entryY=0;entryDx=0;entryDy=0;" parent="1" source="2e4PK4rcVVkY7cT2aezL-1" edge="1">
          <mxGeometry relative="1" as="geometry">
            <mxPoint x="420" y="400" as="targetPoint" />
          </mxGeometry>
        </mxCell>
        <mxCell id="2e4PK4rcVVkY7cT2aezL-1" value="" style="ellipse;whiteSpace=wrap;html=1;aspect=fixed;fontSize=10;verticalAlign=middle;fontStyle=0;spacing=2;fillStyle=auto;fillColor=#000000;" parent="1" vertex="1">
          <mxGeometry x="400" y="320" width="40" height="40" as="geometry" />
        </mxCell>
        <mxCell id="XQoQBEAJUf5u4z0eLD-v-1" value="" style="ellipse;html=1;shape=endState;fillColor=#000000;strokeColor=#000000;" vertex="1" parent="1">
          <mxGeometry x="400" y="760" width="40" height="40" as="geometry" />
        </mxCell>
        <mxCell id="18B_cS0ttKwLjLUPz1oV-3" value="Pending For Approvel" style="text;html=1;strokeColor=none;fillColor=none;align=center;verticalAlign=middle;whiteSpace=wrap;rounded=0;" vertex="1" parent="1">
          <mxGeometry x="360" y="460" width="60" height="40" as="geometry" />
        </mxCell>
        <mxCell id="18B_cS0ttKwLjLUPz1oV-9" value="Leave&amp;nbsp;&lt;br&gt;Application&lt;br&gt;&amp;nbsp;Approved" style="text;html=1;strokeColor=none;fillColor=none;align=center;verticalAlign=middle;whiteSpace=wrap;rounded=0;" vertex="1" parent="1">
          <mxGeometry x="240" y="560" width="60" height="60" as="geometry" />
        </mxCell>
        <mxCell id="18B_cS0ttKwLjLUPz1oV-10" value="Leave&lt;br&gt;Application&lt;br&gt;&amp;nbsp;Rejected" style="text;html=1;strokeColor=none;fillColor=none;align=center;verticalAlign=middle;whiteSpace=wrap;rounded=0;" vertex="1" parent="1">
          <mxGeometry x="540" y="560" width="60" height="60" as="geometry" />
        </mxCell>
        <mxCell id="18B_cS0ttKwLjLUPz1oV-11" value="Notify Employee" style="text;html=1;strokeColor=none;fillColor=none;align=center;verticalAlign=middle;whiteSpace=wrap;rounded=0;" vertex="1" parent="1">
          <mxGeometry x="240" y="710" width="60" height="40" as="geometry" />
        </mxCell>
        <mxCell id="18B_cS0ttKwLjLUPz1oV-12" value="Notify Employee" style="text;html=1;strokeColor=none;fillColor=none;align=center;verticalAlign=middle;whiteSpace=wrap;rounded=0;" vertex="1" parent="1">
          <mxGeometry x="540" y="710" width="60" height="40" as="geometry" />
        </mxCell>
        <mxCell id="18B_cS0ttKwLjLUPz1oV-15" value="&lt;font style=&quot;font-size: 14px;&quot;&gt;&lt;b&gt;Apply For Leave&lt;/b&gt;&lt;/font&gt;" style="text;html=1;strokeColor=none;fillColor=none;align=center;verticalAlign=middle;whiteSpace=wrap;rounded=0;" vertex="1" parent="1">
          <mxGeometry x="200" y="280" width="160" height="60" as="geometry" />
        </mxCell>
        <mxCell id="18B_cS0ttKwLjLUPz1oV-16" value="" style="endArrow=none;html=1;rounded=0;entryX=1;entryY=0;entryDx=0;entryDy=0;" edge="1" parent="1" target="18B_cS0ttKwLjLUPz1oV-15">
          <mxGeometry width="50" height="50" relative="1" as="geometry">
            <mxPoint x="200" y="340" as="sourcePoint" />
            <mxPoint x="250" y="290" as="targetPoint" />
            <Array as="points">
              <mxPoint x="330" y="340" />
              <mxPoint x="360" y="320" />
            </Array>
          </mxGeometry>
        </mxCell>
      </root>
    </mxGraphModel>
  </diagram>
  <diagram id="P5B_4P1aw1MDj44X_MYJ" name="Class">
    <mxGraphModel dx="333" dy="206" grid="1" gridSize="10" guides="1" tooltips="1" connect="1" arrows="1" fold="1" page="1" pageScale="1" pageWidth="850" pageHeight="1100" math="0" shadow="0">
      <root>
        <mxCell id="0" />
        <mxCell id="1" parent="0" />
        <mxCell id="aFRfuSnwAeAXVRMQeQE5-1" value="Employee" style="swimlane;fontStyle=1;align=center;verticalAlign=top;childLayout=stackLayout;horizontal=1;startSize=26;horizontalStack=0;resizeParent=1;resizeParentMax=0;resizeLast=0;collapsible=1;marginBottom=0;whiteSpace=wrap;html=1;" parent="1" vertex="1">
          <mxGeometry x="200" y="240" width="160" height="190" as="geometry">
            <mxRectangle x="200" y="240" width="100" height="30" as="alternateBounds" />
          </mxGeometry>
        </mxCell>
        <mxCell id="aFRfuSnwAeAXVRMQeQE5-2" value="+ empId: int" style="text;strokeColor=none;fillColor=none;align=left;verticalAlign=top;spacingLeft=4;spacingRight=4;overflow=hidden;rotatable=0;points=[[0,0.5],[1,0.5]];portConstraint=eastwest;whiteSpace=wrap;html=1;" parent="aFRfuSnwAeAXVRMQeQE5-1" vertex="1">
          <mxGeometry y="26" width="160" height="26" as="geometry" />
        </mxCell>
        <mxCell id="aFRfuSnwAeAXVRMQeQE5-5" value="+ empName: string" style="text;strokeColor=none;fillColor=none;align=left;verticalAlign=top;spacingLeft=4;spacingRight=4;overflow=hidden;rotatable=0;points=[[0,0.5],[1,0.5]];portConstraint=eastwest;whiteSpace=wrap;html=1;" parent="aFRfuSnwAeAXVRMQeQE5-1" vertex="1">
          <mxGeometry y="52" width="160" height="26" as="geometry" />
        </mxCell>
        <mxCell id="aFRfuSnwAeAXVRMQeQE5-6" value="+ empContect: bigint" style="text;strokeColor=none;fillColor=none;align=left;verticalAlign=top;spacingLeft=4;spacingRight=4;overflow=hidden;rotatable=0;points=[[0,0.5],[1,0.5]];portConstraint=eastwest;whiteSpace=wrap;html=1;" parent="aFRfuSnwAeAXVRMQeQE5-1" vertex="1">
          <mxGeometry y="78" width="160" height="26" as="geometry" />
        </mxCell>
        <mxCell id="aFRfuSnwAeAXVRMQeQE5-7" value="+ empAddress: string" style="text;strokeColor=none;fillColor=none;align=left;verticalAlign=top;spacingLeft=4;spacingRight=4;overflow=hidden;rotatable=0;points=[[0,0.5],[1,0.5]];portConstraint=eastwest;whiteSpace=wrap;html=1;" parent="aFRfuSnwAeAXVRMQeQE5-1" vertex="1">
          <mxGeometry y="104" width="160" height="26" as="geometry" />
        </mxCell>
        <mxCell id="aFRfuSnwAeAXVRMQeQE5-8" value="+ empAddress: string" style="text;strokeColor=none;fillColor=none;align=left;verticalAlign=top;spacingLeft=4;spacingRight=4;overflow=hidden;rotatable=0;points=[[0,0.5],[1,0.5]];portConstraint=eastwest;whiteSpace=wrap;html=1;" parent="aFRfuSnwAeAXVRMQeQE5-1" vertex="1">
          <mxGeometry y="130" width="160" height="26" as="geometry" />
        </mxCell>
        <mxCell id="aFRfuSnwAeAXVRMQeQE5-3" value="" style="line;strokeWidth=1;fillColor=none;align=left;verticalAlign=middle;spacingTop=-1;spacingLeft=3;spacingRight=3;rotatable=0;labelPosition=right;points=[];portConstraint=eastwest;strokeColor=inherit;" parent="aFRfuSnwAeAXVRMQeQE5-1" vertex="1">
          <mxGeometry y="156" width="160" height="8" as="geometry" />
        </mxCell>
        <mxCell id="aFRfuSnwAeAXVRMQeQE5-4" value="+ method(type): type" style="text;strokeColor=none;fillColor=none;align=left;verticalAlign=top;spacingLeft=4;spacingRight=4;overflow=hidden;rotatable=0;points=[[0,0.5],[1,0.5]];portConstraint=eastwest;whiteSpace=wrap;html=1;" parent="aFRfuSnwAeAXVRMQeQE5-1" vertex="1">
          <mxGeometry y="164" width="160" height="26" as="geometry" />
        </mxCell>
        <mxCell id="FOqILPf0sEfd5HMCO7Ao-1" value="Text" style="text;html=1;align=center;verticalAlign=middle;whiteSpace=wrap;rounded=0;" vertex="1" parent="1">
          <mxGeometry x="390" y="540" width="60" height="30" as="geometry" />
        </mxCell>
      </root>
    </mxGraphModel>
  </diagram>
</mxfile>
